<svg id="Layer_1" data-name="Layer 1" xmlns="http://www.w3.org/2000/svg" viewBox="0 0 98.39911 61.89999">
  <defs>
    <style>
      .cls-1 {
        fill: none;
        stroke: #f7f5f5;
        stroke-width: 4px;
      }

      .cls-1, .cls-3 {
        stroke-miterlimit: 10;
      }

      .cls-2 {
        fill: #333;
      }

      .cls-3 {
        fill: #f5aaf9;
        stroke: #474747;
        stroke-width: 0.99586px;
      }
    </style>
  </defs>
  <title>Kun kvinner</title>
  <path class="cls-1" d="M25.539,56.26025" transform="translate(-2.27393 -0.4265)"/>
  <g>
    <path class="cls-2" d="M96.26639,20.6855a2.20894,2.20894,0,0,0-2.06524-1.69571h-3.208a2.13764,2.13764,0,0,0-2.04738,1.69571l-1.62822,5.36163a0.7926,0.7926,0,1,0,1.489.51843L90.27315,21.63h0.39434L88.14587,30.378h2.34881l0.0003,6.81068a0.87827,0.87827,0,1,0,1.75654,0l-0.00121-6.85487h0.713v6.86516a0.87465,0.87465,0,0,0,1.74928,0V30.378h2.34125L94.51288,21.63h0.42673l1.466,4.91826a0.7928,0.7928,0,1,0,1.48991-.50662Z" transform="translate(-2.27393 -0.4265)"/>
    <circle class="cls-2" cx="90.3326" cy="16.26259" r="1.9006"/>
  </g>
  <g>
    <circle class="cls-2" cx="4.21764" cy="16.34003" r="1.89939"/>
    <path class="cls-2" d="M8.719,19.06208l-4.25759-.00182a2.24924,2.24924,0,0,0-2.1875,2.465v5.83163a0.75475,0.75475,0,1,0,1.49748,0V21.68085H4.24807L4.246,37.08267a1.0653,1.0653,0,0,0,2.13061,0l0.00091-8.934H6.8514l-0.003,8.934a1.06485,1.06485,0,0,0,2.1297,0L8.98292,21.68054h0.467V27.356a0.7505,0.7505,0,1,0,1.486,0V21.55979A2.27955,2.27955,0,0,0,8.719,19.06208Z" transform="translate(-2.27393 -0.4265)"/>
  </g>
  <g>
    <path d="M4.58026,43.69107c0-1.499.53955-2.30469,1.436-2.30469,0.88916,0,1.42871.80566,1.42871,2.30469s-0.53955,2.332-1.42871,2.332C5.11981,46.02311,4.58026,45.1901,4.58026,43.69107Zm2.3042,0c0-1.30957-.3501-1.8418-0.86816-1.8418-0.52539,0-.87549.53223-0.87549,1.8418s0.3501,1.87012.87549,1.87012C6.53436,45.56119,6.88446,45.00064,6.88446,43.69107Z" transform="translate(-2.27393 -0.4265)"/>
    <path d="M7.99628,42.70377c0-.918.41309-1.44336,1.04346-1.44336,0.62354,0,1.04346.52539,1.04346,1.44336,0,0.93066-.41992,1.45605-1.04346,1.45605C8.40936,44.15982,7.99628,43.63443,7.99628,42.70377Zm1.646,0c0-.72852-0.24512-1.08594-0.60254-1.08594-0.36426,0-.60937.35742-0.60937,1.08594,0,0.72754.24512,1.09961,0.60938,1.09961C9.39715,43.80338,9.64227,43.43131,9.64227,42.70377Zm2.06592-1.44336h0.39209l-2.53516,4.7627H9.173ZM11.197,44.56607c0-.917.41309-1.44238,1.04346-1.44238a1.19178,1.19178,0,0,1,1.04395,1.44238c0,0.93164-.42041,1.457-1.04395,1.457C11.61,46.02311,11.197,45.49771,11.197,44.56607Zm1.646,0c0-.72852-0.24512-1.085-0.60254-1.085-0.36426,0-.60937.35645-0.60937,1.085s0.24512,1.09961.60938,1.09961C12.59784,45.66568,12.843,45.29459,12.843,44.56607Z" transform="translate(-2.27393 -0.4265)"/>
  </g>
  <g>
    <path d="M85.256,44.81314H86.2785v-3.291H85.466V41.15006a2.63807,2.63807,0,0,0,.9458-0.3291h0.44141v3.99219h0.92432v0.47656H85.256V44.81314Z" transform="translate(-2.27393 -0.4265)"/>
    <path d="M88.48993,43.04166c0-1.499.53955-2.30469,1.436-2.30469,0.88916,0,1.42871.80566,1.42871,2.30469s-0.53955,2.332-1.42871,2.332C89.02948,45.37369,88.48993,44.54068,88.48993,43.04166Zm2.3042,0c0-1.30957-.3501-1.8418-0.86816-1.8418-0.52539,0-.87549.53223-0.87549,1.8418s0.3501,1.87012.87549,1.87012C90.444,44.91178,90.79413,44.35123,90.79413,43.04166Z" transform="translate(-2.27393 -0.4265)"/>
    <path d="M91.96893,43.04166c0-1.499.53955-2.30469,1.436-2.30469,0.88916,0,1.42871.80566,1.42871,2.30469s-0.53955,2.332-1.42871,2.332C92.50848,45.37369,91.96893,44.54068,91.96893,43.04166Zm2.3042,0c0-1.30957-.3501-1.8418-0.86816-1.8418-0.52539,0-.87549.53223-0.87549,1.8418s0.3501,1.87012.87549,1.87012C93.923,44.91178,94.27313,44.35123,94.27313,43.04166Z" transform="translate(-2.27393 -0.4265)"/>
    <path d="M95.38495,42.05436c0-.918.41309-1.44336,1.04346-1.44336,0.62354,0,1.04346.52539,1.04346,1.44336,0,0.93066-.41992,1.45605-1.04346,1.45605C95.798,43.51041,95.38495,42.985,95.38495,42.05436Zm1.646,0c0-.72852-0.24512-1.08594-0.60254-1.08594-0.36426,0-.60937.35742-0.60937,1.08594,0,0.72754.24512,1.09961,0.60938,1.09961C96.78583,43.154,97.03094,42.78189,97.03094,42.05436ZM99.09686,40.611H99.489l-2.53516,4.7627H96.56171Zm-0.51123,3.30566c0-.917.41309-1.44238,1.04346-1.44238a1.19178,1.19178,0,0,1,1.04395,1.44238c0,0.93164-.42041,1.457-1.04395,1.457C98.99872,45.37369,98.58563,44.8483,98.58563,43.91666Zm1.646,0c0-.72852-0.24512-1.085-0.60254-1.085-0.36426,0-.60937.35645-0.60937,1.085s0.24512,1.09961.60938,1.09961C99.98651,45.01627,100.23163,44.64518,100.23163,43.91666Z" transform="translate(-2.27393 -0.4265)"/>
  </g>
  <ellipse class="cls-3" cx="47.18876" cy="30.95" rx="31.32575" ry="30.45207"/>
</svg>
