<svg id="Layer_1" data-name="Layer 1" xmlns="http://www.w3.org/2000/svg" viewBox="0 0 98.76172 61.89999">
  <defs>
    <style>
      .cls-1 {
        fill: none;
        stroke: #f7f5f5;
        stroke-width: 4px;
      }

      .cls-1, .cls-3 {
        stroke-miterlimit: 10;
      }

      .cls-2 {
        fill: #333;
      }

      .cls-3 {
        fill: #4dd9ff;
        stroke: #474747;
        stroke-width: 0.99586px;
      }
    </style>
  </defs>
  <title>Kun menn</title>
  <path class="cls-1" d="M25.539,56.26025" transform="translate(-0.5534 -0.4265)"/>
  <g>
    <path class="cls-2" d="M96.26639,20.6855a2.20894,2.20894,0,0,0-2.06524-1.69571h-3.208a2.13764,2.13764,0,0,0-2.04738,1.69571l-1.62822,5.36163a0.7926,0.7926,0,1,0,1.489.51843L90.27315,21.63h0.39434L88.14587,30.378h2.34881l0.0003,6.81068a0.87827,0.87827,0,1,0,1.75654,0l-0.00121-6.85487h0.713v6.86516a0.87465,0.87465,0,0,0,1.74928,0V30.378h2.34125L94.51288,21.63h0.42673l1.466,4.91826a0.7928,0.7928,0,1,0,1.48991-.50662Z" transform="translate(-0.5534 -0.4265)"/>
    <circle class="cls-2" cx="92.05312" cy="16.26259" r="1.9006"/>
  </g>
  <g>
    <circle class="cls-2" cx="5.93816" cy="16.34003" r="1.89939"/>
    <path class="cls-2" d="M8.719,19.06208l-4.25759-.00182a2.24924,2.24924,0,0,0-2.1875,2.465v5.83163a0.75475,0.75475,0,1,0,1.49748,0V21.68085H4.24807L4.246,37.08267a1.0653,1.0653,0,0,0,2.13061,0l0.00091-8.934H6.8514l-0.003,8.934a1.06485,1.06485,0,0,0,2.1297,0L8.98292,21.68054h0.467V27.356a0.7505,0.7505,0,1,0,1.486,0V21.55979A2.27955,2.27955,0,0,0,8.719,19.06208Z" transform="translate(-0.5534 -0.4265)"/>
  </g>
  <g>
    <path d="M0.5534,45.46256H1.57587v-3.291H0.76337V41.79947a2.63807,2.63807,0,0,0,.9458-0.3291H2.15057v3.99219H3.07489v0.47656H0.5534V45.46256Z" transform="translate(-0.5534 -0.4265)"/>
    <path d="M3.78729,43.69107c0-1.499.53955-2.30469,1.436-2.30469,0.88916,0,1.42871.80566,1.42871,2.30469s-0.53955,2.332-1.42871,2.332C4.32684,46.02311,3.78729,45.1901,3.78729,43.69107Zm2.3042,0c0-1.30957-.3501-1.8418-0.86816-1.8418-0.52539,0-.87549.53223-0.87549,1.8418s0.3501,1.87012.87549,1.87012C5.74139,45.56119,6.09149,45.00064,6.09149,43.69107Z" transform="translate(-0.5534 -0.4265)"/>
    <path d="M7.2663,43.69107c0-1.499.53955-2.30469,1.436-2.30469,0.88916,0,1.42871.80566,1.42871,2.30469s-0.53955,2.332-1.42871,2.332C7.80585,46.02311,7.2663,45.1901,7.2663,43.69107Zm2.3042,0c0-1.30957-.3501-1.8418-0.86816-1.8418-0.52539,0-.87549.53223-0.87549,1.8418s0.3501,1.87012.87549,1.87012C9.2204,45.56119,9.57049,45.00064,9.57049,43.69107Z" transform="translate(-0.5534 -0.4265)"/>
    <path d="M10.68231,42.70377c0-.918.41309-1.44336,1.04346-1.44336,0.62354,0,1.04346.52539,1.04346,1.44336,0,0.93066-.41992,1.45605-1.04346,1.45605C11.0954,44.15982,10.68231,43.63443,10.68231,42.70377Zm1.646,0c0-.72852-0.24512-1.08594-0.60254-1.08594-0.36426,0-.60937.35742-0.60937,1.08594,0,0.72754.24512,1.09961,0.60938,1.09961C12.08319,43.80338,12.32831,43.43131,12.32831,42.70377Zm2.06592-1.44336h0.39209l-2.53516,4.7627H11.85907ZM13.883,44.56607c0-.917.41309-1.44238,1.04346-1.44238a1.19178,1.19178,0,0,1,1.04395,1.44238c0,0.93164-.42041,1.457-1.04395,1.457C14.29608,46.02311,13.883,45.49771,13.883,44.56607Zm1.646,0c0-.72852-0.24512-1.085-0.60254-1.085-0.36426,0-.60937.35645-0.60937,1.085s0.24512,1.09961.60938,1.09961C15.28387,45.66568,15.529,45.29459,15.529,44.56607Z" transform="translate(-0.5534 -0.4265)"/>
  </g>
  <g>
    <path d="M90.611,43.04166c0-1.499.53955-2.30469,1.436-2.30469,0.88916,0,1.42871.80566,1.42871,2.30469s-0.53955,2.332-1.42871,2.332C91.15057,45.37369,90.611,44.54068,90.611,43.04166Zm2.3042,0c0-1.30957-.3501-1.8418-0.86816-1.8418-0.52539,0-.87549.53223-0.87549,1.8418s0.3501,1.87012.87549,1.87012C92.56512,44.91178,92.91522,44.35123,92.91522,43.04166Z" transform="translate(-0.5534 -0.4265)"/>
    <path d="M94.027,42.05436c0-.918.41309-1.44336,1.04346-1.44336,0.62354,0,1.04346.52539,1.04346,1.44336,0,0.93066-.41992,1.45605-1.04346,1.45605C94.44012,43.51041,94.027,42.985,94.027,42.05436Zm1.646,0c0-.72852-0.24512-1.08594-0.60254-1.08594-0.36426,0-.60937.35742-0.60937,1.08594,0,0.72754.24512,1.09961,0.60938,1.09961C95.42792,43.154,95.673,42.78189,95.673,42.05436ZM97.739,40.611H98.131l-2.53516,4.7627H95.2038Zm-0.51123,3.30566c0-.917.41309-1.44238,1.04346-1.44238a1.19178,1.19178,0,0,1,1.04395,1.44238c0,0.93164-.42041,1.457-1.04395,1.457C97.64081,45.37369,97.22772,44.8483,97.22772,43.91666Zm1.646,0c0-.72852-0.24512-1.085-0.60254-1.085-0.36426,0-.60937.35645-0.60937,1.085s0.24512,1.09961.60938,1.09961C98.6286,45.01627,98.87372,44.64518,98.87372,43.91666Z" transform="translate(-0.5534 -0.4265)"/>
  </g>
  <ellipse class="cls-3" cx="48.90928" cy="30.95" rx="31.32575" ry="30.45207"/>
</svg>
