<svg id="Layer_1" data-name="Layer 1" xmlns="http://www.w3.org/2000/svg" viewBox="0 0 98.14648 62.75299">
  <defs>
    <style>
      .cls-1 {
        fill: #f5aaf9;
      }

      .cls-1, .cls-4 {
        stroke: #474747;
      }

      .cls-1, .cls-2, .cls-4 {
        stroke-miterlimit: 10;
      }

      .cls-2 {
        fill: none;
        stroke: #f7f5f5;
        stroke-width: 4px;
      }

      .cls-3 {
        fill: #333;
      }

      .cls-4 {
        fill: #4dd9ff;
      }
    </style>
  </defs>
  <title>Lik fordeling</title>
  <path class="cls-1" d="M78.7713,31.467c-0.00061,7.8-4.8629,28.25823-29.00018,30.73217l0.00025-31.63442,0.00233-30A31.11629,31.11629,0,0,1,78.7713,31.467Z" transform="translate(-0.17529)"/>
  <path class="cls-2" d="M23.66679,56.26025" transform="translate(-0.17529)"/>
  <g>
    <path class="cls-3" d="M94.39414,20.6855a2.20894,2.20894,0,0,0-2.06524-1.69571h-3.208A2.13764,2.13764,0,0,0,87.0735,20.6855l-1.62822,5.36163a0.7926,0.7926,0,1,0,1.489.51843L88.4009,21.63h0.39434L86.27362,30.378h2.34881l0.0003,6.81068a0.87827,0.87827,0,1,0,1.75654,0l-0.00121-6.85487h0.713v6.86516a0.87465,0.87465,0,0,0,1.74928,0V30.378h2.34125L92.64063,21.63h0.42673l1.466,4.91826a0.7928,0.7928,0,1,0,1.48991-.50662Z" transform="translate(-0.17529)"/>
    <circle class="cls-3" cx="90.55898" cy="16.68909" r="1.9006"/>
  </g>
  <g>
    <circle class="cls-3" cx="4.44402" cy="16.76653" r="1.89939"/>
    <path class="cls-3" d="M6.84677,19.06208l-4.25759-.00182a2.24924,2.24924,0,0,0-2.1875,2.465v5.83163a0.75475,0.75475,0,1,0,1.49748,0V21.68085H2.37582L2.3737,37.08267a1.0653,1.0653,0,0,0,2.13061,0l0.00091-8.934H4.97915l-0.003,8.934a1.06485,1.06485,0,0,0,2.1297,0L7.11067,21.68054h0.467V27.356a0.7505,0.7505,0,1,0,1.486,0V21.55979A2.27955,2.27955,0,0,0,6.84677,19.06208Z" transform="translate(-0.17529)"/>
  </g>
  <g>
    <path d="M0.17529,45.41373l0.27979-.37793a1.52213,1.52213,0,0,0,1.12793.51074,0.96368,0.96368,0,0,0,.98047-1.02246,0.898,0.898,0,0,0-.95264-0.98047,1.25889,1.25889,0,0,0-.76318.27344l-0.30859-.19629,0.14746-2.15039H2.92041v0.498h-1.73L1.07178,43.29166a1.3683,1.3683,0,0,1,.686-0.18164,1.28579,1.28579,0,0,1,1.38672,1.40039,1.46063,1.46063,0,0,1-1.50586,1.5127A1.95622,1.95622,0,0,1,.17529,45.41373Z" transform="translate(-0.17529)"/>
    <path d="M3.78711,43.69107c0-1.499.53955-2.30469,1.436-2.30469,0.88916,0,1.42871.80566,1.42871,2.30469s-0.53955,2.332-1.42871,2.332C4.32666,46.02311,3.78711,45.1901,3.78711,43.69107Zm2.3042,0c0-1.30957-.3501-1.8418-0.86816-1.8418-0.52539,0-.87549.53223-0.87549,1.8418s0.3501,1.87012.87549,1.87012C5.74121,45.56119,6.09131,45.00064,6.09131,43.69107Z" transform="translate(-0.17529)"/>
    <path d="M7.20313,42.70377c0-.918.41309-1.44336,1.04346-1.44336,0.62354,0,1.04346.52539,1.04346,1.44336,0,0.93066-.41992,1.45605-1.04346,1.45605C7.61621,44.15982,7.20313,43.63443,7.20313,42.70377Zm1.646,0c0-.72852-0.24512-1.08594-0.60254-1.08594-0.36426,0-.60938.35742-0.60938,1.08594,0,0.72754.24512,1.09961,0.60938,1.09961C8.604,43.80338,8.84912,43.43131,8.84912,42.70377ZM10.915,41.26041h0.39209L8.772,46.02311H8.37988Zm-0.51123,3.30566c0-.917.41309-1.44238,1.04346-1.44238a1.19178,1.19178,0,0,1,1.04395,1.44238c0,0.93164-.42041,1.457-1.04395,1.457C10.81689,46.02311,10.40381,45.49771,10.40381,44.56607Zm1.646,0c0-.72852-0.24512-1.085-0.60254-1.085-0.36426,0-.60937.35645-0.60937,1.085s0.24512,1.09961.60938,1.09961C11.80469,45.66568,12.0498,45.29459,12.0498,44.56607Z" transform="translate(-0.17529)"/>
  </g>
  <g>
    <path d="M86.00586,44.76432l0.27979-.37793a1.52213,1.52213,0,0,0,1.12793.51074,0.96368,0.96368,0,0,0,.98047-1.02246,0.898,0.898,0,0,0-.95264-0.98047,1.25889,1.25889,0,0,0-.76318.27344l-0.30859-.19629L86.51709,40.821H88.751v0.498h-1.73l-0.11865,1.32324a1.3683,1.3683,0,0,1,.686-0.18164A1.28579,1.28579,0,0,1,88.9751,43.861a1.46063,1.46063,0,0,1-1.50586,1.5127A1.95622,1.95622,0,0,1,86.00586,44.76432Z" transform="translate(-0.17529)"/>
    <path d="M89.61768,43.04166c0-1.499.53955-2.30469,1.436-2.30469,0.88916,0,1.42871.80566,1.42871,2.30469s-0.53955,2.332-1.42871,2.332C90.15723,45.37369,89.61768,44.54068,89.61768,43.04166Zm2.3042,0c0-1.30957-.3501-1.8418-0.86816-1.8418-0.52539,0-.87549.53223-0.87549,1.8418s0.3501,1.87012.87549,1.87012C91.57178,44.91178,91.92188,44.35123,91.92188,43.04166Z" transform="translate(-0.17529)"/>
    <path d="M93.03369,42.05436c0-.918.41309-1.44336,1.04346-1.44336,0.62354,0,1.04346.52539,1.04346,1.44336,0,0.93066-.41992,1.45605-1.04346,1.45605C93.44678,43.51041,93.03369,42.985,93.03369,42.05436Zm1.646,0c0-.72852-0.24512-1.08594-0.60254-1.08594-0.36426,0-.60937.35742-0.60937,1.08594,0,0.72754.24512,1.09961,0.60938,1.09961C94.43457,43.154,94.67969,42.78189,94.67969,42.05436ZM96.74561,40.611H97.1377l-2.53516,4.7627H94.21045Zm-0.51123,3.30566c0-.917.41309-1.44238,1.04346-1.44238a1.19178,1.19178,0,0,1,1.04395,1.44238c0,0.93164-.42041,1.457-1.04395,1.457C96.64746,45.37369,96.23438,44.8483,96.23438,43.91666Zm1.646,0c0-.72852-0.24512-1.085-0.60254-1.085-0.36426,0-.60937.35645-0.60937,1.085s0.24512,1.09961.60938,1.09961C97.63525,45.01627,97.88037,44.64518,97.88037,43.91666Z" transform="translate(-0.17529)"/>
  </g>
  <path class="cls-4" d="M17.77125,31.31175c-0.0062-7.8,4.83826-28.26246,28.97337-30.75745L46.772,32.18871l0.02383,30A31.11629,31.11629,0,0,1,17.77125,31.31175Z" transform="translate(-0.17529)"/>
</svg>
