<svg id="Layer_1" data-name="Layer 1" xmlns="http://www.w3.org/2000/svg" viewBox="0 0 97.98535 62.73567">
  <defs>
    <style>
      .cls-1 {
        fill: #4dd9ff;
      }

      .cls-1, .cls-2 {
        stroke: #474747;
      }

      .cls-1, .cls-2, .cls-3 {
        stroke-miterlimit: 10;
      }

      .cls-2 {
        fill: #f5aaf9;
      }

      .cls-3 {
        fill: none;
        stroke: #f7f5f5;
        stroke-width: 4px;
      }

      .cls-4 {
        fill: #333;
      }
    </style>
  </defs>
  <title>Overvekt menn</title>
  <path class="cls-1" d="M45.67124,32.23552L68.06967,54.63708A30.89426,30.89426,0,1,1,45.57348.53552l-0.00221,31.7h0.1Z" transform="translate(-0.33643)"/>
  <path class="cls-2" d="M78.7713,31.43785A30.679,30.679,0,0,1,71.06987,51.8373L49.77137,30.53583l0.00209-30A31.11629,31.11629,0,0,1,78.7713,31.43785Z" transform="translate(-0.33643)"/>
  <path class="cls-3" d="M23.66679,56.23126" transform="translate(-0.33643)"/>
  <g>
    <path class="cls-4" d="M94.39414,20.65651A2.20894,2.20894,0,0,0,92.3289,18.9608h-3.208a2.13764,2.13764,0,0,0-2.04738,1.69571l-1.62822,5.36163a0.7926,0.7926,0,1,0,1.489.51843l1.46661-4.93551h0.39434L86.27362,30.349h2.34881l0.0003,6.81068a0.87827,0.87827,0,1,0,1.75654,0l-0.00121-6.85487h0.713v6.86516a0.87465,0.87465,0,0,0,1.74928,0V30.349h2.34125l-2.541-8.74791h0.42673l1.466,4.91826a0.7928,0.7928,0,1,0,1.48991-.50662Z" transform="translate(-0.33643)"/>
    <circle class="cls-4" cx="90.39785" cy="16.6601" r="1.9006"/>
  </g>
  <g>
    <circle class="cls-4" cx="4.28289" cy="16.73753" r="1.89939"/>
    <path class="cls-4" d="M6.84677,19.03308l-4.25759-.00182a2.24924,2.24924,0,0,0-2.1875,2.465v5.83163a0.75475,0.75475,0,1,0,1.49748,0V21.65186H2.37582L2.3737,37.05368a1.0653,1.0653,0,0,0,2.13061,0l0.00091-8.934H4.97915l-0.003,8.934a1.06485,1.06485,0,0,0,2.1297,0L7.11067,21.65155h0.467V27.327a0.7505,0.7505,0,1,0,1.486,0V21.5308A2.27955,2.27955,0,0,0,6.84677,19.03308Z" transform="translate(-0.33643)"/>
  </g>
  <g>
    <path d="M0.33643,43.84372c0-1.793.812-2.48633,1.70166-2.48633A1.40814,1.40814,0,0,1,3.1167,41.834l-0.32227.35742a0.97108,0.97108,0,0,0-.73535-0.35059c-0.62354,0-1.14844.4834-1.17676,1.89844a1.42645,1.42645,0,0,1,1.04395-.56055,1.21009,1.21009,0,0,1,1.27441,1.37988A1.35109,1.35109,0,0,1,1.877,45.99411C1.00146,45.99411.33643,45.28025,0.33643,43.84372ZM2.6543,44.55857a0.80662,0.80662,0,0,0-.82617-0.94531,1.19041,1.19041,0,0,0-.93164.58789C0.96631,45.06931,1.30957,45.539,1.877,45.539A0.86087,0.86087,0,0,0,2.6543,44.55857Z" transform="translate(-0.33643)"/>
    <path d="M3.6543,45.38474l0.27979-.37793a1.52213,1.52213,0,0,0,1.12793.51074,0.964,0.964,0,0,0,.98047-1.02246,0.898,0.898,0,0,0-.95264-0.98047,1.25889,1.25889,0,0,0-.76318.27344l-0.30859-.19629,0.14746-2.15039H6.39941v0.498h-1.73L4.55078,43.26267a1.3683,1.3683,0,0,1,.686-0.18164,1.28579,1.28579,0,0,1,1.38672,1.40039,1.46063,1.46063,0,0,1-1.50586,1.5127A1.95622,1.95622,0,0,1,3.6543,45.38474Z" transform="translate(-0.33643)"/>
    <path d="M7.20313,42.67478c0-.918.41309-1.44336,1.04346-1.44336,0.62354,0,1.04346.52539,1.04346,1.44336,0,0.93066-.41992,1.45605-1.04346,1.45605C7.61621,44.13083,7.20313,43.60544,7.20313,42.67478Zm1.646,0c0-.72852-0.24512-1.08594-0.60254-1.08594-0.36426,0-.60938.35742-0.60938,1.08594,0,0.72754.24512,1.09961,0.60938,1.09961C8.604,43.77439,8.84912,43.40232,8.84912,42.67478ZM10.915,41.23142h0.39209L8.772,45.99411H8.37988Zm-0.51123,3.30566c0-.917.41309-1.44238,1.04346-1.44238a1.19178,1.19178,0,0,1,1.04395,1.44238c0,0.93164-.42041,1.457-1.04395,1.457C10.81689,45.99411,10.40381,45.46872,10.40381,44.53708Zm1.646,0c0-.72852-0.24512-1.085-0.60254-1.085-0.36426,0-.60937.35645-0.60937,1.085s0.24512,1.09961.60938,1.09961C11.80469,45.63669,12.0498,45.2656,12.0498,44.53708Z" transform="translate(-0.33643)"/>
  </g>
  <g>
    <path d="M86.0127,44.71482l0.29395-.37891a1.51716,1.51716,0,0,0,1.1416.53223,0.8331,0.8331,0,0,0,.9248-0.81934c0-.53223-0.36426-0.88965-1.42871-0.88965V42.71872c0.95215,0,1.26758-.36426,1.26758-0.834a0.68751,0.68751,0,0,0-.77051-0.707,1.35327,1.35327,0,0,0-.95264.45508l-0.30811-.36426A1.83992,1.83992,0,0,1,87.4624,40.708a1.16967,1.16967,0,0,1,1.33789,1.13477,1.10707,1.10707,0,0,1-.8125,1.06445v0.02832a1.15323,1.15323,0,0,1,.96631,1.13477,1.32439,1.32439,0,0,1-1.4707,1.27441A1.89863,1.89863,0,0,1,86.0127,44.71482Z" transform="translate(-0.33643)"/>
    <path d="M89.48486,44.73533l0.27979-.37793a1.52213,1.52213,0,0,0,1.12793.51074,0.964,0.964,0,0,0,.98047-1.02246,0.898,0.898,0,0,0-.95264-0.98047,1.25889,1.25889,0,0,0-.76318.27344l-0.30859-.19629L89.99609,40.792H92.23V41.29H90.5l-0.11865,1.32324a1.3683,1.3683,0,0,1,.686-0.18164A1.28579,1.28579,0,0,1,92.4541,43.832a1.46063,1.46063,0,0,1-1.50586,1.5127A1.95622,1.95622,0,0,1,89.48486,44.73533Z" transform="translate(-0.33643)"/>
    <path d="M93.03369,42.02536c0-.918.41309-1.44336,1.04346-1.44336,0.62354,0,1.04346.52539,1.04346,1.44336,0,0.93066-.41992,1.45605-1.04346,1.45605C93.44678,43.48142,93.03369,42.956,93.03369,42.02536Zm1.646,0c0-.72852-0.24512-1.08594-0.60254-1.08594-0.36426,0-.60937.35742-0.60937,1.08594,0,0.72754.24512,1.09961,0.60938,1.09961C94.43457,43.125,94.67969,42.7529,94.67969,42.02536ZM96.74561,40.582H97.1377l-2.53516,4.7627H94.21045Zm-0.51123,3.30566c0-.917.41309-1.44238,1.04346-1.44238a1.19178,1.19178,0,0,1,1.04395,1.44238c0,0.93164-.42041,1.457-1.04395,1.457C96.64746,45.3447,96.23438,44.81931,96.23438,43.88767Zm1.646,0c0-.72852-0.24512-1.085-0.60254-1.085-0.36426,0-.60937.35645-0.60937,1.085s0.24512,1.09961.60938,1.09961C97.63525,44.98728,97.88037,44.61619,97.88037,43.88767Z" transform="translate(-0.33643)"/>
  </g>
</svg>
