<svg id="Layer_1" data-name="Layer 1" xmlns="http://www.w3.org/2000/svg" viewBox="0 0 98.13965 62.8772">
  <defs>
    <style>
      .cls-1 {
        fill: #f5aaf9;
      }

      .cls-1, .cls-2 {
        stroke: #474747;
      }

      .cls-1, .cls-2, .cls-3 {
        stroke-miterlimit: 10;
      }

      .cls-2 {
        fill: #4dd9ff;
      }

      .cls-3 {
        fill: none;
        stroke: #f7f5f5;
        stroke-width: 4px;
      }

      .cls-4 {
        fill: #333;
      }
    </style>
  </defs>
  <title>Overvekt kvinner</title>
  <path class="cls-1" d="M49.9463,32.33541L49.81952,0.65729A30.89426,30.89426,0,1,1,27.69188,54.91063l22.3254-22.50481Z" transform="translate(-0.18213)"/>
  <path class="cls-2" d="M25.88417,9.592A30.679,30.679,0,0,1,45.71778.53227l0.12055,30.12249L24.71019,51.95269A31.11629,31.11629,0,0,1,25.88417,9.592Z" transform="translate(-0.18213)"/>
  <path class="cls-3" d="M23.66679,56.27025" transform="translate(-0.18213)"/>
  <g>
    <path class="cls-4" d="M94.39414,20.69549a2.20894,2.20894,0,0,0-2.06524-1.69571h-3.208a2.13764,2.13764,0,0,0-2.04738,1.69571l-1.62822,5.36163a0.7926,0.7926,0,1,0,1.489.51843L88.4009,21.64h0.39434l-2.52162,8.7479h2.34881l0.0003,6.81068a0.87827,0.87827,0,1,0,1.75654,0l-0.00121-6.85487h0.713v6.86516a0.87465,0.87465,0,0,0,1.74928,0v-6.821h2.34125L92.64063,21.64h0.42673l1.466,4.91826a0.7928,0.7928,0,1,0,1.48991-.50662Z" transform="translate(-0.18213)"/>
    <circle class="cls-4" cx="90.55215" cy="16.69908" r="1.9006"/>
  </g>
  <g>
    <circle class="cls-4" cx="4.43718" cy="16.77652" r="1.89939"/>
    <path class="cls-4" d="M6.84677,19.07207l-4.25759-.00182a2.24924,2.24924,0,0,0-2.1875,2.465v5.83163a0.75475,0.75475,0,1,0,1.49748,0V21.69084H2.37582L2.3737,37.09266a1.0653,1.0653,0,0,0,2.13061,0l0.00091-8.934H4.97915l-0.003,8.934a1.06485,1.06485,0,0,0,2.1297,0L7.11067,21.69054h0.467V27.366a0.7505,0.7505,0,1,0,1.486,0V21.56978A2.27955,2.27955,0,0,0,6.84677,19.07207Z" transform="translate(-0.18213)"/>
  </g>
  <g>
    <path d="M0.18213,45.40322l0.29395-.37891a1.51716,1.51716,0,0,0,1.1416.53223,0.8331,0.8331,0,0,0,.9248-0.81934c0-.53223-0.36426-0.88965-1.42871-0.88965V43.40712c0.95215,0,1.26758-.36426,1.26758-0.834a0.68751,0.68751,0,0,0-.77051-0.707,1.35327,1.35327,0,0,0-.95264.45508L0.3501,41.95693a1.83992,1.83992,0,0,1,1.28174-.56055,1.16967,1.16967,0,0,1,1.33789,1.13477,1.10707,1.10707,0,0,1-.8125,1.06445v0.02832a1.15323,1.15323,0,0,1,.96631,1.13477,1.32439,1.32439,0,0,1-1.4707,1.27441A1.89863,1.89863,0,0,1,.18213,45.40322Z" transform="translate(-0.18213)"/>
    <path d="M3.81494,43.88271c0-1.793.8125-2.48633,1.70215-2.48633a1.40814,1.40814,0,0,1,1.07861.47656l-0.32227.35742a0.97108,0.97108,0,0,0-.73535-0.35059c-0.62354,0-1.14844.4834-1.17676,1.89844a1.42645,1.42645,0,0,1,1.04395-.56055,1.21009,1.21009,0,0,1,1.27441,1.37988A1.35109,1.35109,0,0,1,5.356,46.0331C4.48047,46.0331,3.81494,45.31923,3.81494,43.88271ZM6.1333,44.59755a0.80662,0.80662,0,0,0-.82617-0.94531,1.19041,1.19041,0,0,0-.93164.58789C4.44531,45.10829,4.78857,45.578,5.356,45.578A0.86087,0.86087,0,0,0,6.1333,44.59755Z" transform="translate(-0.18213)"/>
    <path d="M7.20313,42.71376c0-.918.41309-1.44336,1.04346-1.44336,0.62354,0,1.04346.52539,1.04346,1.44336,0,0.93066-.41992,1.45605-1.04346,1.45605C7.61621,44.16982,7.20313,43.64443,7.20313,42.71376Zm1.646,0c0-.72852-0.24512-1.08594-0.60254-1.08594-0.36426,0-.60938.35742-0.60938,1.08594,0,0.72754.24512,1.09961,0.60938,1.09961C8.604,43.81337,8.84912,43.4413,8.84912,42.71376ZM10.915,41.2704h0.39209L8.772,46.0331H8.37988Zm-0.51123,3.30566c0-.917.41309-1.44238,1.04346-1.44238a1.19178,1.19178,0,0,1,1.04395,1.44238c0,0.93164-.42041,1.457-1.04395,1.457C10.81689,46.0331,10.40381,45.50771,10.40381,44.57607Zm1.646,0c0-.72852-0.24512-1.085-0.60254-1.085-0.36426,0-.60937.35645-0.60937,1.085s0.24512,1.09961.60938,1.09961C11.80469,45.67568,12.0498,45.30458,12.0498,44.57607Z" transform="translate(-0.18213)"/>
  </g>
  <g>
    <path d="M86.167,43.23329c0-1.793.812-2.48633,1.70166-2.48633a1.40814,1.40814,0,0,1,1.07861.47656L88.625,41.581a0.97108,0.97108,0,0,0-.73535-0.35059c-0.62354,0-1.14844.4834-1.17676,1.89844a1.42645,1.42645,0,0,1,1.04395-.56055,1.21009,1.21009,0,0,1,1.27441,1.37988,1.35109,1.35109,0,0,1-1.32373,1.43555C86.832,45.38368,86.167,44.66982,86.167,43.23329Zm2.31787,0.71484a0.80662,0.80662,0,0,0-.82617-0.94531,1.19041,1.19041,0,0,0-.93164.58789c0.06982,0.86816.41309,1.33789,0.98047,1.33789A0.86087,0.86087,0,0,0,88.48486,43.94814Z" transform="translate(-0.18213)"/>
    <path d="M91.43848,44.06728H89.42871V43.68837L91.34082,40.831h0.644v2.77344h0.60938v0.46289H91.98486V45.2997H91.43848V44.06728Zm0-.46289V42.30947c0-.23828.02148-0.624,0.03516-0.8623H91.4458c-0.1123.21777-.23828,0.41406-0.36426,0.63086l-1.04346,1.52637h1.40039Z" transform="translate(-0.18213)"/>
    <path d="M93.03369,42.06435c0-.918.41309-1.44336,1.04346-1.44336,0.62354,0,1.04346.52539,1.04346,1.44336,0,0.93066-.41992,1.45605-1.04346,1.45605C93.44678,43.5204,93.03369,42.995,93.03369,42.06435Zm1.646,0c0-.72852-0.24512-1.08594-0.60254-1.08594-0.36426,0-.60937.35742-0.60937,1.08594,0,0.72754.24512,1.09961,0.60938,1.09961C94.43457,43.164,94.67969,42.79189,94.67969,42.06435ZM96.74561,40.621H97.1377l-2.53516,4.7627H94.21045Zm-0.51123,3.30566c0-.917.41309-1.44238,1.04346-1.44238a1.19178,1.19178,0,0,1,1.04395,1.44238c0,0.93164-.42041,1.457-1.04395,1.457C96.64746,45.38368,96.23438,44.85829,96.23438,43.92665Zm1.646,0c0-.72852-0.24512-1.085-0.60254-1.085-0.36426,0-.60937.35645-0.60937,1.085s0.24512,1.09961.60938,1.09961C97.63525,45.02626,97.88037,44.65517,97.88037,43.92665Z" transform="translate(-0.18213)"/>
  </g>
</svg>
