<svg id="Layer_1" data-name="Layer 1" xmlns="http://www.w3.org/2000/svg" viewBox="0 0 21.484 82.37944">
  <title>20-29</title>
  <path d="M2.238,72.349H19.247a2.23844,2.23844,0,0,0,2.237-2.238V35.946a2.2378,2.2378,0,0,0-2.237-2.238H2.238A2.23738,2.23738,0,0,0,0,35.946V70.111A2.23738,2.23738,0,0,0,2.238,72.349ZM4.475,38.184H17.008V67.872H4.475V38.184Z"/>
  <g>
    <path d="M2.4346,79.98589c1.34473-1.33789,2.10107-2.14355,2.10107-2.86523a0.7914,0.7914,0,0,0-.84766-0.875,1.31665,1.31665,0,0,0-.95215.53906l-0.32959-.3291a1.75507,1.75507,0,0,1,1.35205-.67969,1.24123,1.24123,0,0,1,1.3374,1.31738c0,0.83984-.76318,1.67383-1.8208,2.78027,0.24512-.02148.51807-0.042,0.74951-0.042H5.31985v0.49707H2.4346V79.98589Z"/>
    <path d="M5.94143,78.08062c0-1.499.53955-2.30469,1.436-2.30469,0.88916,0,1.42871.80566,1.42871,2.30469s-0.53955,2.332-1.42871,2.332C6.481,80.41265,5.94143,79.57964,5.94143,78.08062Zm2.3042,0c0-1.30957-.3501-1.8418-0.86816-1.8418-0.52539,0-.87549.53223-0.87549,1.8418s0.3501,1.87012.87549,1.87012C7.89554,79.95073,8.24563,79.39019,8.24563,78.08062Z"/>
    <path d="M9.39944,78.35405h1.61084v0.44043H9.39944V78.35405Z"/>
    <path d="M11.56936,79.98589c1.34473-1.33789,2.10107-2.14355,2.10107-2.86523a0.7914,0.7914,0,0,0-.84766-0.875,1.31665,1.31665,0,0,0-.95215.53906l-0.32959-.3291a1.75507,1.75507,0,0,1,1.35205-.67969,1.24123,1.24123,0,0,1,1.3374,1.31738c0,0.83984-.76318,1.67383-1.8208,2.78027,0.24512-.02148.51807-0.042,0.74951-0.042h1.29541v0.49707H11.56936V79.98589Z"/>
    <path d="M15.12552,79.9439l0.32178-.36426a0.98107,0.98107,0,0,0,.73535.35645c0.63037,0,1.1626-.49023,1.18408-1.91895a1.40106,1.40106,0,0,1-1.05078.57422,1.20483,1.20483,0,0,1-1.26758-1.37891,1.35076,1.35076,0,0,1,1.31641-1.43652c0.88281,0,1.541.71484,1.541,2.15039,0,1.793-.8125,2.48633-1.70215,2.48633A1.42963,1.42963,0,0,1,15.12552,79.9439Zm2.22705-2.38184c-0.07715-.86816-0.42041-1.33105-0.98779-1.33105a0.86575,0.86575,0,0,0-.77734.98145,0.807,0.807,0,0,0,.82666.94531A1.19467,1.19467,0,0,0,17.35257,77.56206Z"/>
  </g>
</svg>
