<svg id="Layer_1" data-name="Layer 1" xmlns="http://www.w3.org/2000/svg" viewBox="0 0 21.49 82.37944">
  <title>30-39</title>
  <path d="M2.238,72.349H19.252a2.23866,2.23866,0,0,0,2.238-2.238V19.657a2.238,2.238,0,0,0-2.238-2.238H2.238A2.23738,2.23738,0,0,0,0,19.657V70.111A2.238,2.238,0,0,0,2.238,72.349ZM4.476,21.895H17.014V67.873H4.476V21.895Z"/>
  <g>
    <path d="M2.90717,79.78276l0.29395-.37891a1.51716,1.51716,0,0,0,1.1416.53223,0.8331,0.8331,0,0,0,.9248-0.81934c0-.53223-0.36426-0.88965-1.42871-0.88965V77.78667c0.95215,0,1.26758-.36426,1.26758-0.834a0.68751,0.68751,0,0,0-.77051-0.707,1.35327,1.35327,0,0,0-.95264.45508l-0.30811-.36426a1.83992,1.83992,0,0,1,1.28174-.56055,1.16967,1.16967,0,0,1,1.33789,1.13477,1.10707,1.10707,0,0,1-.8125,1.06445v0.02832a1.15323,1.15323,0,0,1,.96631,1.13477,1.32439,1.32439,0,0,1-1.4707,1.27441A1.89863,1.89863,0,0,1,2.90717,79.78276Z"/>
    <path d="M6.51215,78.08062c0-1.499.53955-2.30469,1.436-2.30469,0.88916,0,1.42871.80566,1.42871,2.30469s-0.53955,2.332-1.42871,2.332C7.0517,80.41265,6.51215,79.57964,6.51215,78.08062Zm2.3042,0c0-1.30957-.3501-1.8418-0.86816-1.8418-0.52539,0-.87549.53223-0.87549,1.8418s0.3501,1.87012.87549,1.87012C8.46625,79.95073,8.81635,79.39019,8.81635,78.08062Z"/>
    <path d="M9.97016,78.35405H11.581v0.44043H9.97016V78.35405Z"/>
    <path d="M12.04194,79.78276l0.29395-.37891a1.51716,1.51716,0,0,0,1.1416.53223,0.8331,0.8331,0,0,0,.9248-0.81934c0-.53223-0.36426-0.88965-1.42871-0.88965V77.78667c0.95215,0,1.26758-.36426,1.26758-0.834a0.68751,0.68751,0,0,0-.77051-0.707,1.35327,1.35327,0,0,0-.95264.45508l-0.30811-.36426a1.83992,1.83992,0,0,1,1.28174-.56055,1.16967,1.16967,0,0,1,1.33789,1.13477,1.10707,1.10707,0,0,1-.8125,1.06445v0.02832a1.15323,1.15323,0,0,1,.96631,1.13477,1.32439,1.32439,0,0,1-1.4707,1.27441A1.89863,1.89863,0,0,1,12.04194,79.78276Z"/>
    <path d="M15.69623,79.9439l0.32178-.36426a0.98107,0.98107,0,0,0,.73535.35645c0.63037,0,1.1626-.49023,1.18408-1.91895a1.40106,1.40106,0,0,1-1.05078.57422,1.20483,1.20483,0,0,1-1.26758-1.37891,1.35076,1.35076,0,0,1,1.31641-1.43652c0.88281,0,1.541.71484,1.541,2.15039,0,1.793-.8125,2.48633-1.70215,2.48633A1.42963,1.42963,0,0,1,15.69623,79.9439Zm2.22705-2.38184c-0.07715-.86816-0.42041-1.33105-0.98779-1.33105a0.86575,0.86575,0,0,0-.77734.98145,0.807,0.807,0,0,0,.82666.94531A1.19467,1.19467,0,0,0,17.92328,77.56206Z"/>
  </g>
</svg>
