<svg id="Layer_1" data-name="Layer 1" xmlns="http://www.w3.org/2000/svg" viewBox="0 0 21.49 82.37944">
  <title>40-49</title>
  <path d="M2.238,72.349H19.252a2.23866,2.23866,0,0,0,2.238-2.238V19.657a2.238,2.238,0,0,0-2.238-2.238H2.238A2.23738,2.23738,0,0,0,0,19.657V70.111A2.238,2.238,0,0,0,2.238,72.349ZM4.476,21.895H17.014V67.873H4.476V21.895Z"/>
  <g>
    <path d="M5.59061,79.09526H3.58036V78.71636L5.493,75.85894H6.13651v2.77344H6.74589v0.46289H6.13651v1.23242H5.59061V79.09526Zm0-.46289V77.33745c0-.23828.02148-0.624,0.03516-0.8623H5.59745c-0.1123.21777-.23828,0.41406-0.36426,0.63086l-1.043,1.52637H5.59061Z"/>
    <path d="M7.24882,78.07964c0-1.499.53906-2.30469,1.43555-2.30469,0.88965,0,1.42871.80566,1.42871,2.30469s-0.53906,2.332-1.42871,2.332C7.78788,80.41167,7.24882,79.57866,7.24882,78.07964Zm2.30371,0c0-1.30957-.34961-1.8418-0.86816-1.8418-0.52539,0-.875.53223-0.875,1.8418s0.34961,1.87012.875,1.87012C9.20292,79.94976,9.55253,79.38921,9.55253,78.07964Z"/>
    <path d="M10.70682,78.35308h1.61035v0.44043H10.70682V78.35308Z"/>
    <path d="M14.72538,79.09526H12.71561V78.71636l1.91211-2.85742h0.64355v2.77344h0.60938v0.46289H15.27128v1.23242h-0.5459V79.09526Zm0-.46289V77.33745c0-.23828.02148-0.624,0.03516-0.8623H14.73221c-0.1123.21777-.23828,0.41406-0.36426,0.63086l-1.043,1.52637h1.40039Z"/>
    <path d="M16.43241,79.94292l0.32227-.36426a0.97948,0.97948,0,0,0,.73535.35645c0.62988,0,1.16211-.49023,1.18359-1.91895a1.40106,1.40106,0,0,1-1.05078.57422,1.20483,1.20483,0,0,1-1.26758-1.37891A1.35106,1.35106,0,0,1,17.67167,75.775c0.88281,0,1.541.71484,1.541,2.15039,0,1.793-.8125,2.48633-1.70215,2.48633A1.43043,1.43043,0,0,1,16.43241,79.94292Zm2.22754-2.38184C18.5828,76.69292,18.23905,76.23,17.67167,76.23a0.86605,0.86605,0,0,0-.77734.98145,0.80706,0.80706,0,0,0,.82715.94531A1.19467,1.19467,0,0,0,18.65995,77.56108Z"/>
  </g>
</svg>
