<svg id="Layer_1" data-name="Layer 1" xmlns="http://www.w3.org/2000/svg" viewBox="0 0 21.489 82.37944">
  <title>50-59</title>
  <path d="M2.237,72.349H19.252a2.23844,2.23844,0,0,0,2.237-2.238V2.238A2.2378,2.2378,0,0,0,19.252,0H2.237A2.2378,2.2378,0,0,0,0,2.238V70.111A2.23716,2.23716,0,0,0,2.237,72.349ZM4.475,4.477H17.013V67.873H4.475V4.477Z"/>
  <g>
    <path d="M3.65,79.80327l0.28027-.37793a1.52127,1.52127,0,0,0,1.12793.51074,0.964,0.964,0,0,0,.98047-1.02246,0.89835,0.89835,0,0,0-.95312-0.98047,1.25752,1.25752,0,0,0-.7627.27344L4.01428,78.0103l0.14746-2.15039h2.2334v0.498H4.66564L4.5465,77.6812A1.36878,1.36878,0,0,1,5.233,77.49956,1.28579,1.28579,0,0,1,6.61975,78.9a1.4609,1.4609,0,0,1-1.50586,1.5127A1.95742,1.95742,0,0,1,3.65,79.80327Z"/>
    <path d="M7.26232,78.08062c0-1.499.53906-2.30469,1.43555-2.30469,0.88965,0,1.42871.80566,1.42871,2.30469s-0.53906,2.332-1.42871,2.332C7.80139,80.41265,7.26232,79.57964,7.26232,78.08062Zm2.30371,0c0-1.30957-.34961-1.8418-0.86816-1.8418-0.52539,0-.875.53223-0.875,1.8418s0.34961,1.87012.875,1.87012C9.21643,79.95073,9.566,79.39019,9.566,78.08062Z"/>
    <path d="M10.72033,78.35405h1.61035v0.44043H10.72033V78.35405Z"/>
    <path d="M12.78478,79.80327l0.28027-.37793a1.52127,1.52127,0,0,0,1.12793.51074,0.964,0.964,0,0,0,.98047-1.02246,0.89835,0.89835,0,0,0-.95312-0.98047,1.25752,1.25752,0,0,0-.7627.27344L13.149,78.0103l0.14746-2.15039h2.2334v0.498H13.80041L13.68127,77.6812a1.36878,1.36878,0,0,1,.68652-0.18164A1.28579,1.28579,0,0,1,15.75451,78.9a1.4609,1.4609,0,0,1-1.50586,1.5127A1.95742,1.95742,0,0,1,12.78478,79.80327Z"/>
    <path d="M16.44592,79.9439l0.32227-.36426a0.97948,0.97948,0,0,0,.73535.35645c0.62988,0,1.16211-.49023,1.18359-1.91895a1.40106,1.40106,0,0,1-1.05078.57422,1.20483,1.20483,0,0,1-1.26758-1.37891,1.35106,1.35106,0,0,1,1.31641-1.43652c0.88281,0,1.541.71484,1.541,2.15039,0,1.793-.8125,2.48633-1.70215,2.48633A1.43043,1.43043,0,0,1,16.44592,79.9439Zm2.22754-2.38184c-0.07715-.86816-0.4209-1.33105-0.98828-1.33105a0.86605,0.86605,0,0,0-.77734.98145,0.80706,0.80706,0,0,0,.82715.94531A1.19467,1.19467,0,0,0,18.67346,77.56206Z"/>
  </g>
</svg>
