<svg id="Layer_1" data-name="Layer 1" xmlns="http://www.w3.org/2000/svg" viewBox="0 0 21.49 82.37944">
  <title>60-69</title>
  <path d="M2.238,72.349H19.252a2.23866,2.23866,0,0,0,2.238-2.238V19.657a2.238,2.238,0,0,0-2.238-2.238H2.238A2.23738,2.23738,0,0,0,0,19.657V70.111A2.238,2.238,0,0,0,2.238,72.349ZM4.476,21.895H17.014V67.873H4.476V21.895Z"/>
  <g>
    <path d="M3.50437,78.26226c0-1.793.8125-2.48633,1.70215-2.48633a1.40706,1.40706,0,0,1,1.07813.47656l-0.32227.35742A0.97031,0.97031,0,0,0,5.227,76.25933c-0.623,0-1.14844.4834-1.17676,1.89844a1.42645,1.42645,0,0,1,1.04395-.56055A1.20987,1.20987,0,0,1,6.36863,78.9771a1.35072,1.35072,0,0,1-1.32324,1.43555C4.16941,80.41265,3.50437,79.69878,3.50437,78.26226ZM5.82273,78.9771a0.80685,0.80685,0,0,0-.82617-0.94531,1.19041,1.19041,0,0,0-.93164.58789c0.06934,0.86816.41309,1.33789,0.98047,1.33789A0.86087,0.86087,0,0,0,5.82273,78.9771Z"/>
    <path d="M6.95554,78.08062c0-1.499.53906-2.30469,1.43555-2.30469,0.88965,0,1.42871.80566,1.42871,2.30469s-0.53906,2.332-1.42871,2.332C7.4946,80.41265,6.95554,79.57964,6.95554,78.08062Zm2.30371,0c0-1.30957-.34961-1.8418-0.86816-1.8418-0.52539,0-.875.53223-0.875,1.8418s0.34961,1.87012.875,1.87012C8.90964,79.95073,9.25925,79.39019,9.25925,78.08062Z"/>
    <path d="M10.41355,78.35405H12.0239v0.44043H10.41355V78.35405Z"/>
    <path d="M12.63914,78.26226c0-1.793.8125-2.48633,1.70215-2.48633a1.40706,1.40706,0,0,1,1.07813.47656l-0.32227.35742a0.97031,0.97031,0,0,0-.73535-0.35059c-0.623,0-1.14844.4834-1.17676,1.89844a1.42645,1.42645,0,0,1,1.04395-.56055,1.20987,1.20987,0,0,1,1.27441,1.37988,1.35072,1.35072,0,0,1-1.32324,1.43555C13.30417,80.41265,12.63914,79.69878,12.63914,78.26226Zm2.31836,0.71484a0.80685,0.80685,0,0,0-.82617-0.94531,1.19041,1.19041,0,0,0-.93164.58789c0.06934,0.86816.41309,1.33789,0.98047,1.33789A0.86087,0.86087,0,0,0,14.95749,78.9771Z"/>
    <path d="M16.13914,79.9439l0.32227-.36426a0.97948,0.97948,0,0,0,.73535.35645c0.62988,0,1.16211-.49023,1.18359-1.91895a1.40106,1.40106,0,0,1-1.05078.57422A1.20483,1.20483,0,0,1,16.062,77.21245a1.35106,1.35106,0,0,1,1.31641-1.43652c0.88281,0,1.541.71484,1.541,2.15039,0,1.793-.8125,2.48633-1.70215,2.48633A1.43043,1.43043,0,0,1,16.13914,79.9439Zm2.22754-2.38184c-0.07715-.86816-0.4209-1.33105-0.98828-1.33105a0.86605,0.86605,0,0,0-.77734.98145,0.80706,0.80706,0,0,0,.82715.94531A1.19467,1.19467,0,0,0,18.36667,77.56206Z"/>
  </g>
</svg>
