<svg id="Layer_1" data-name="Layer 1" xmlns="http://www.w3.org/2000/svg" viewBox="0 0 21.484 82.37944">
  <title>70-79</title>
  <path d="M2.238,71.24888H19.247a2.23844,2.23844,0,0,0,2.237-2.238v-34.165a2.2378,2.2378,0,0,0-2.237-2.238H2.238A2.23738,2.23738,0,0,0,0,34.84588v34.165A2.23738,2.23738,0,0,0,2.238,71.24888Zm2.237-34.165H17.008v29.688H4.475v-29.688Z"/>
  <g>
    <path d="M5.38412,76.357H3.15658v-0.498H6.03549v0.35742a6.1201,6.1201,0,0,0-1.35156,4.11133H4.08822A6.5744,6.5744,0,0,1,5.38412,76.357Z"/>
    <path d="M6.63607,78.07964c0-1.499.53906-2.30469,1.43555-2.30469,0.88965,0,1.42871.80566,1.42871,2.30469s-0.53906,2.332-1.42871,2.332C7.17514,80.41167,6.63607,79.57866,6.63607,78.07964Zm2.30371,0c0-1.30957-.34961-1.8418-0.86816-1.8418-0.52539,0-.875.53223-0.875,1.8418s0.34961,1.87012.875,1.87012C8.59018,79.94976,8.93978,79.38921,8.93978,78.07964Z"/>
    <path d="M10.09408,78.35308h1.61035v0.44043H10.09408V78.35308Z"/>
    <path d="M14.51889,76.357H12.29135v-0.498h2.87891v0.35742a6.1201,6.1201,0,0,0-1.35156,4.11133H13.223A6.5744,6.5744,0,0,1,14.51889,76.357Z"/>
    <path d="M15.81967,79.94292l0.32227-.36426a0.97948,0.97948,0,0,0,.73535.35645c0.62988,0,1.16211-.49023,1.18359-1.91895a1.40106,1.40106,0,0,1-1.05078.57422,1.20483,1.20483,0,0,1-1.26758-1.37891A1.35106,1.35106,0,0,1,17.05893,75.775c0.88281,0,1.541.71484,1.541,2.15039,0,1.793-.8125,2.48633-1.70215,2.48633A1.43043,1.43043,0,0,1,15.81967,79.94292Zm2.22754-2.38184c-0.07715-.86816-0.4209-1.33105-0.98828-1.33105a0.86605,0.86605,0,0,0-.77734.98145,0.80706,0.80706,0,0,0,.82715.94531A1.19467,1.19467,0,0,0,18.04721,77.56108Z"/>
  </g>
</svg>
