<svg id="Layer_1" data-name="Layer 1" xmlns="http://www.w3.org/2000/svg" viewBox="0 0 156.49834 80.41265">
  <title>Middelaldrende</title>
  <g>
    <path d="M29.28838,72.349h17.014a2.23866,2.23866,0,0,0,2.238-2.238V19.657a2.238,2.238,0,0,0-2.238-2.238h-17.014a2.23738,2.23738,0,0,0-2.238,2.238V70.111A2.238,2.238,0,0,0,29.28838,72.349Zm2.238-50.454h12.538V67.873h-12.538V21.895Z"/>
    <path d="M2.238,72.349H19.247a2.23844,2.23844,0,0,0,2.237-2.238V35.946a2.2378,2.2378,0,0,0-2.237-2.238H2.238A2.23738,2.23738,0,0,0,0,35.946V70.111A2.23738,2.23738,0,0,0,2.238,72.349ZM4.475,38.184H17.008V67.872H4.475V38.184Z"/>
    <path d="M83.39463,72.349h17.015a2.23844,2.23844,0,0,0,2.237-2.238V2.238A2.2378,2.2378,0,0,0,100.40963,0h-17.015a2.2378,2.2378,0,0,0-2.237,2.238V70.111A2.23716,2.23716,0,0,0,83.39463,72.349Zm2.238-67.872h12.538V67.873h-12.538V4.477Z"/>
  </g>
  <path d="M56.34175,72.349h17.014a2.23866,2.23866,0,0,0,2.238-2.238V19.657a2.238,2.238,0,0,0-2.238-2.238h-17.014a2.23738,2.23738,0,0,0-2.238,2.238V70.111A2.238,2.238,0,0,0,56.34175,72.349Zm2.238-50.454h12.538V67.873h-12.538V21.895Z"/>
  <path d="M110.4485,72.349h17.014a2.23866,2.23866,0,0,0,2.238-2.238V19.657a2.238,2.238,0,0,0-2.238-2.238h-17.014a2.23738,2.23738,0,0,0-2.238,2.238V70.111A2.238,2.238,0,0,0,110.4485,72.349Zm2.238-50.454h12.538V67.873h-12.538V21.895Z"/>
  <path d="M137.25234,71.24888h17.009a2.23844,2.23844,0,0,0,2.237-2.238v-34.165a2.2378,2.2378,0,0,0-2.237-2.238h-17.009a2.23738,2.23738,0,0,0-2.238,2.238v34.165A2.23738,2.23738,0,0,0,137.25234,71.24888Zm2.237-34.165h12.533v29.688h-12.533v-29.688Z"/>
  <g>
    <path d="M2.4346,79.98589c1.34473-1.33789,2.10107-2.14355,2.10107-2.86523a0.7914,0.7914,0,0,0-.84766-0.875,1.31665,1.31665,0,0,0-.95215.53906l-0.32959-.3291a1.75507,1.75507,0,0,1,1.35205-.67969,1.24123,1.24123,0,0,1,1.3374,1.31738c0,0.83984-.76318,1.67383-1.8208,2.78027,0.24512-.02148.51807-0.042,0.74951-0.042H5.31985v0.49707H2.4346V79.98589Z"/>
    <path d="M5.94143,78.08062c0-1.499.53955-2.30469,1.436-2.30469,0.88916,0,1.42871.80566,1.42871,2.30469s-0.53955,2.332-1.42871,2.332C6.481,80.41265,5.94143,79.57964,5.94143,78.08062Zm2.3042,0c0-1.30957-.3501-1.8418-0.86816-1.8418-0.52539,0-.87549.53223-0.87549,1.8418s0.3501,1.87012.87549,1.87012C7.89554,79.95073,8.24563,79.39019,8.24563,78.08062Z"/>
    <path d="M9.39944,78.35405h1.61084v0.44043H9.39944V78.35405Z"/>
    <path d="M11.56936,79.98589c1.34473-1.33789,2.10107-2.14355,2.10107-2.86523a0.7914,0.7914,0,0,0-.84766-0.875,1.31665,1.31665,0,0,0-.95215.53906l-0.32959-.3291a1.75507,1.75507,0,0,1,1.35205-.67969,1.24123,1.24123,0,0,1,1.3374,1.31738c0,0.83984-.76318,1.67383-1.8208,2.78027,0.24512-.02148.51807-0.042,0.74951-0.042h1.29541v0.49707H11.56936V79.98589Z"/>
    <path d="M15.12552,79.9439l0.32178-.36426a0.98107,0.98107,0,0,0,.73535.35645c0.63037,0,1.1626-.49023,1.18408-1.91895a1.40106,1.40106,0,0,1-1.05078.57422,1.20483,1.20483,0,0,1-1.26758-1.37891,1.35076,1.35076,0,0,1,1.31641-1.43652c0.88281,0,1.541.71484,1.541,2.15039,0,1.793-.8125,2.48633-1.70215,2.48633A1.42963,1.42963,0,0,1,15.12552,79.9439Zm2.22705-2.38184c-0.07715-.86816-0.42041-1.33105-0.98779-1.33105a0.86575,0.86575,0,0,0-.77734.98145,0.807,0.807,0,0,0,.82666.94531A1.19467,1.19467,0,0,0,17.35257,77.56206Z"/>
  </g>
  <g>
    <path d="M29.95755,79.78276l0.29395-.37891a1.51716,1.51716,0,0,0,1.1416.53223,0.8331,0.8331,0,0,0,.9248-0.81934c0-.53223-0.36426-0.88965-1.42871-0.88965V77.78667c0.95215,0,1.26758-.36426,1.26758-0.834a0.68751,0.68751,0,0,0-.77051-0.707,1.35327,1.35327,0,0,0-.95264.45508l-0.30811-.36426a1.83992,1.83992,0,0,1,1.28174-.56055,1.16967,1.16967,0,0,1,1.33789,1.13477,1.10707,1.10707,0,0,1-.8125,1.06445v0.02832a1.15323,1.15323,0,0,1,.96631,1.13477,1.32439,1.32439,0,0,1-1.4707,1.27441A1.89863,1.89863,0,0,1,29.95755,79.78276Z"/>
    <path d="M33.56253,78.08062c0-1.499.53955-2.30469,1.436-2.30469,0.88916,0,1.42871.80566,1.42871,2.30469s-0.53955,2.332-1.42871,2.332C34.10208,80.41265,33.56253,79.57964,33.56253,78.08062Zm2.3042,0c0-1.30957-.3501-1.8418-0.86816-1.8418-0.52539,0-.87549.53223-0.87549,1.8418s0.3501,1.87012.87549,1.87012C35.51663,79.95073,35.86673,79.39019,35.86673,78.08062Z"/>
    <path d="M37.02054,78.35405h1.61084v0.44043H37.02054V78.35405Z"/>
    <path d="M39.09231,79.78276l0.29395-.37891a1.51716,1.51716,0,0,0,1.1416.53223,0.8331,0.8331,0,0,0,.9248-0.81934c0-.53223-0.36426-0.88965-1.42871-0.88965V77.78667c0.95215,0,1.26758-.36426,1.26758-0.834a0.68751,0.68751,0,0,0-.77051-0.707,1.35327,1.35327,0,0,0-.95264.45508l-0.30811-.36426a1.83992,1.83992,0,0,1,1.28174-.56055,1.16967,1.16967,0,0,1,1.33789,1.13477,1.10707,1.10707,0,0,1-.8125,1.06445v0.02832a1.15323,1.15323,0,0,1,.96631,1.13477,1.32439,1.32439,0,0,1-1.4707,1.27441A1.89863,1.89863,0,0,1,39.09231,79.78276Z"/>
    <path d="M42.74661,79.9439l0.32178-.36426a0.98107,0.98107,0,0,0,.73535.35645c0.63037,0,1.1626-.49023,1.18408-1.91895a1.40106,1.40106,0,0,1-1.05078.57422,1.20483,1.20483,0,0,1-1.26758-1.37891,1.35076,1.35076,0,0,1,1.31641-1.43652c0.88281,0,1.541.71484,1.541,2.15039,0,1.793-.8125,2.48633-1.70215,2.48633A1.42963,1.42963,0,0,1,42.74661,79.9439Zm2.22705-2.38184c-0.07715-.86816-0.42041-1.33105-0.98779-1.33105a0.86575,0.86575,0,0,0-.77734.98145,0.807,0.807,0,0,0,.82666.94531A1.19467,1.19467,0,0,0,44.97366,77.56206Z"/>
  </g>
  <g>
    <path d="M59.69436,79.09526H57.68411V78.71636l1.9126-2.85742h0.64355v2.77344h0.60938v0.46289H60.24026v1.23242h-0.5459V79.09526Zm0-.46289V77.33745c0-.23828.02148-0.624,0.03516-0.8623H59.7012c-0.1123.21777-.23828,0.41406-0.36426,0.63086l-1.043,1.52637h1.40039Z"/>
    <path d="M61.35257,78.07964c0-1.499.53906-2.30469,1.43555-2.30469,0.88965,0,1.42871.80566,1.42871,2.30469s-0.53906,2.332-1.42871,2.332C61.89163,80.41167,61.35257,79.57866,61.35257,78.07964Zm2.30371,0c0-1.30957-.34961-1.8418-0.86816-1.8418-0.52539,0-.875.53223-0.875,1.8418s0.34961,1.87012.875,1.87012C63.30667,79.94976,63.65628,79.38921,63.65628,78.07964Z"/>
    <path d="M64.81057,78.35308h1.61035v0.44043H64.81057V78.35308Z"/>
    <path d="M68.82913,79.09526H66.81936V78.71636l1.91211-2.85742H69.375v2.77344H69.9844v0.46289H69.375v1.23242h-0.5459V79.09526Zm0-.46289V77.33745c0-.23828.02148-0.624,0.03516-0.8623H68.836c-0.1123.21777-.23828,0.41406-0.36426,0.63086l-1.043,1.52637h1.40039Z"/>
    <path d="M70.53616,79.94292l0.32227-.36426a0.97948,0.97948,0,0,0,.73535.35645c0.62988,0,1.16211-.49023,1.18359-1.91895a1.40106,1.40106,0,0,1-1.05078.57422A1.20483,1.20483,0,0,1,70.459,77.21148,1.35106,1.35106,0,0,1,71.77542,75.775c0.88281,0,1.541.71484,1.541,2.15039,0,1.793-.8125,2.48633-1.70215,2.48633A1.43043,1.43043,0,0,1,70.53616,79.94292Zm2.22754-2.38184C72.68655,76.69292,72.3428,76.23,71.77542,76.23a0.86605,0.86605,0,0,0-.77734.98145,0.80706,0.80706,0,0,0,.82715.94531A1.19467,1.19467,0,0,0,72.7637,77.56108Z"/>
  </g>
  <g>
    <path d="M84.80764,79.80327l0.28027-.37793a1.52127,1.52127,0,0,0,1.12793.51074,0.964,0.964,0,0,0,.98047-1.02246,0.89835,0.89835,0,0,0-.95312-0.98047,1.25752,1.25752,0,0,0-.7627.27344L85.1719,78.0103l0.14746-2.15039h2.2334v0.498H85.82327L85.70413,77.6812a1.36878,1.36878,0,0,1,.68652-0.18164A1.28579,1.28579,0,0,1,87.77737,78.9a1.4609,1.4609,0,0,1-1.50586,1.5127A1.95742,1.95742,0,0,1,84.80764,79.80327Z"/>
    <path d="M88.41995,78.08062c0-1.499.53906-2.30469,1.43555-2.30469,0.88965,0,1.42871.80566,1.42871,2.30469s-0.53906,2.332-1.42871,2.332C88.959,80.41265,88.41995,79.57964,88.41995,78.08062Zm2.30371,0c0-1.30957-.34961-1.8418-0.86816-1.8418-0.52539,0-.875.53223-0.875,1.8418s0.34961,1.87012.875,1.87012C90.37405,79.95073,90.72366,79.39019,90.72366,78.08062Z"/>
    <path d="M91.878,78.35405h1.61035v0.44043H91.878V78.35405Z"/>
    <path d="M93.94241,79.80327l0.28027-.37793a1.52127,1.52127,0,0,0,1.12793.51074,0.964,0.964,0,0,0,.98047-1.02246,0.89835,0.89835,0,0,0-.95312-0.98047,1.25752,1.25752,0,0,0-.7627.27344l-0.30859-.19629,0.14746-2.15039h2.2334v0.498H94.958L94.83889,77.6812a1.36878,1.36878,0,0,1,.68652-0.18164A1.28579,1.28579,0,0,1,96.91214,78.9a1.4609,1.4609,0,0,1-1.50586,1.5127A1.95742,1.95742,0,0,1,93.94241,79.80327Z"/>
    <path d="M97.60354,79.9439l0.32227-.36426a0.97948,0.97948,0,0,0,.73535.35645c0.62988,0,1.16211-.49023,1.18359-1.91895a1.40106,1.40106,0,0,1-1.05078.57422,1.20483,1.20483,0,0,1-1.26758-1.37891,1.35106,1.35106,0,0,1,1.31641-1.43652c0.88281,0,1.541.71484,1.541,2.15039,0,1.793-.8125,2.48633-1.70215,2.48633A1.43043,1.43043,0,0,1,97.60354,79.9439Zm2.22754-2.38184c-0.07715-.86816-0.4209-1.33105-0.98828-1.33105a0.86605,0.86605,0,0,0-.77734.98145,0.80706,0.80706,0,0,0,.82715.94531A1.19467,1.19467,0,0,0,99.83108,77.56206Z"/>
  </g>
  <g>
    <path d="M111.71487,78.26226c0-1.793.8125-2.48633,1.70215-2.48633a1.40706,1.40706,0,0,1,1.07813.47656l-0.32227.35742a0.97031,0.97031,0,0,0-.73535-0.35059c-0.623,0-1.14844.4834-1.17676,1.89844a1.42645,1.42645,0,0,1,1.04395-.56055,1.20987,1.20987,0,0,1,1.27441,1.37988,1.35072,1.35072,0,0,1-1.32324,1.43555C112.37991,80.41265,111.71487,79.69878,111.71487,78.26226Zm2.31836,0.71484a0.80685,0.80685,0,0,0-.82617-0.94531,1.19041,1.19041,0,0,0-.93164.58789c0.06934,0.86816.41309,1.33789,0.98047,1.33789A0.86087,0.86087,0,0,0,114.03323,78.9771Z"/>
    <path d="M115.166,78.08062c0-1.499.53906-2.30469,1.43555-2.30469,0.88965,0,1.42871.80566,1.42871,2.30469s-0.53906,2.332-1.42871,2.332C115.70511,80.41265,115.166,79.57964,115.166,78.08062Zm2.30371,0c0-1.30957-.34961-1.8418-0.86816-1.8418-0.52539,0-.875.53223-0.875,1.8418s0.34961,1.87012.875,1.87012C117.12014,79.95073,117.46975,79.39019,117.46975,78.08062Z"/>
    <path d="M118.62405,78.35405h1.61035v0.44043h-1.61035V78.35405Z"/>
    <path d="M120.84964,78.26226c0-1.793.8125-2.48633,1.70215-2.48633a1.40706,1.40706,0,0,1,1.07813.47656l-0.32227.35742a0.97031,0.97031,0,0,0-.73535-0.35059c-0.623,0-1.14844.4834-1.17676,1.89844a1.42645,1.42645,0,0,1,1.04395-.56055,1.20987,1.20987,0,0,1,1.27441,1.37988,1.35072,1.35072,0,0,1-1.32324,1.43555C121.51468,80.41265,120.84964,79.69878,120.84964,78.26226ZM123.168,78.9771a0.80685,0.80685,0,0,0-.82617-0.94531,1.19041,1.19041,0,0,0-.93164.58789c0.06934,0.86816.41309,1.33789,0.98047,1.33789A0.86087,0.86087,0,0,0,123.168,78.9771Z"/>
    <path d="M124.34964,79.9439l0.32227-.36426a0.97948,0.97948,0,0,0,.73535.35645c0.62988,0,1.16211-.49023,1.18359-1.91895a1.40106,1.40106,0,0,1-1.05078.57422,1.20483,1.20483,0,0,1-1.26758-1.37891,1.35106,1.35106,0,0,1,1.31641-1.43652c0.88281,0,1.541.71484,1.541,2.15039,0,1.793-.8125,2.48633-1.70215,2.48633A1.43043,1.43043,0,0,1,124.34964,79.9439Zm2.22754-2.38184c-0.07715-.86816-0.4209-1.33105-0.98828-1.33105a0.86605,0.86605,0,0,0-.77734.98145,0.80706,0.80706,0,0,0,.82715.94531A1.19467,1.19467,0,0,0,126.57718,77.56206Z"/>
  </g>
  <g>
    <path d="M141.39846,76.357h-2.22754v-0.498h2.87891v0.35742a6.1201,6.1201,0,0,0-1.35156,4.11133h-0.5957A6.5744,6.5744,0,0,1,141.39846,76.357Z"/>
    <path d="M142.65042,78.07964c0-1.499.53906-2.30469,1.43555-2.30469,0.88965,0,1.42871.80566,1.42871,2.30469s-0.53906,2.332-1.42871,2.332C143.18948,80.41167,142.65042,79.57866,142.65042,78.07964Zm2.30371,0c0-1.30957-.34961-1.8418-0.86816-1.8418-0.52539,0-.875.53223-0.875,1.8418s0.34961,1.87012.875,1.87012C144.60452,79.94976,144.95413,79.38921,144.95413,78.07964Z"/>
    <path d="M146.10843,78.35308h1.61035v0.44043h-1.61035V78.35308Z"/>
    <path d="M150.53323,76.357h-2.22754v-0.498h2.87891v0.35742a6.1201,6.1201,0,0,0-1.35156,4.11133h-0.5957A6.5744,6.5744,0,0,1,150.53323,76.357Z"/>
    <path d="M151.834,79.94292l0.32227-.36426a0.97948,0.97948,0,0,0,.73535.35645c0.62988,0,1.16211-.49023,1.18359-1.91895a1.40106,1.40106,0,0,1-1.05078.57422,1.20483,1.20483,0,0,1-1.26758-1.37891,1.35106,1.35106,0,0,1,1.31641-1.43652c0.88281,0,1.541.71484,1.541,2.15039,0,1.793-.8125,2.48633-1.70215,2.48633A1.43043,1.43043,0,0,1,151.834,79.94292Zm2.22754-2.38184c-0.07715-.86816-0.4209-1.33105-0.98828-1.33105a0.86605,0.86605,0,0,0-.77734.98145,0.80706,0.80706,0,0,0,.82715.94531A1.19467,1.19467,0,0,0,154.06155,77.56108Z"/>
  </g>
</svg>
