<svg id="Layer_1" data-name="Layer 1" xmlns="http://www.w3.org/2000/svg" viewBox="0 0 77.068 92.999">
  <defs>
    <style>
      .cls-1 {
        fill: #474747;
      }

      .cls-2 {
        fill: #b61921;
      }
    </style>
  </defs>
  <title>Middels</title>
  <path class="cls-1" d="M77.068,92.999H0V0H77.068V92.999ZM1,91.999H76.068V1H1V91.999Z"/>
  <rect class="cls-2" x="3.332" y="3" width="70.736" height="34.27978"/>
  <rect class="cls-1" x="2.882" y="72.596" width="34.235" height="17.118"/>
  <rect class="cls-1" x="3.332" y="40.499" width="33.333" height="2.968"/>
  <rect class="cls-1" x="3.332" y="45.733" width="33.333" height="1.046"/>
  <rect class="cls-1" x="3.332" y="48.348" width="33.333" height="1.046"/>
  <rect class="cls-1" x="3.332" y="50.963" width="33.333" height="1.045"/>
  <rect class="cls-1" x="3.332" y="53.576" width="33.333" height="1.047"/>
  <rect class="cls-1" x="3.332" y="56.158" width="33.333" height="1.046"/>
  <rect class="cls-1" x="3.332" y="58.512" width="33.333" height="1.045"/>
  <rect class="cls-1" x="3.332" y="60.887" width="33.333" height="1.045"/>
  <rect class="cls-1" x="3.332" y="63.674" width="33.333" height="1.047"/>
  <rect class="cls-1" x="3.332" y="66.37" width="33.333" height="1.046"/>
  <rect class="cls-1" x="3.332" y="68.984" width="33.333" height="1.046"/>
  <rect class="cls-1" x="40.284" y="40.331" width="33.333" height="1.084"/>
  <rect class="cls-1" x="40.284" y="43.041" width="33.333" height="1.083"/>
  <rect class="cls-1" x="40.284" y="45.931" width="33.333" height="1.085"/>
  <rect class="cls-1" x="40.284" y="48.641" width="33.333" height="1.085"/>
  <rect class="cls-1" x="40.284" y="51.352" width="33.333" height="1.084"/>
  <rect class="cls-1" x="40.284" y="54.061" width="33.333" height="1.086"/>
  <rect class="cls-1" x="40.284" y="56.737" width="33.333" height="1.084"/>
  <rect class="cls-1" x="40.284" y="59.177" width="33.333" height="1.083"/>
  <rect class="cls-1" x="40.284" y="61.639" width="33.333" height="1.083"/>
  <rect class="cls-1" x="40.284" y="64.528" width="33.333" height="1.085"/>
  <rect class="cls-1" x="40.284" y="67.323" width="33.333" height="1.084"/>
  <rect class="cls-1" x="40.284" y="70.033" width="33.333" height="1.084"/>
  <rect class="cls-1" x="40.284" y="72.924" width="33.333" height="1.083"/>
  <rect class="cls-1" x="40.284" y="75.633" width="33.333" height="1.085"/>
  <rect class="cls-1" x="40.284" y="78.344" width="33.333" height="1.083"/>
  <rect class="cls-1" x="40.284" y="81.053" width="33.333" height="1.085"/>
  <rect class="cls-1" x="40.284" y="83.729" width="33.333" height="1.085"/>
  <rect class="cls-1" x="40.284" y="86.169" width="33.333" height="1.083"/>
  <rect class="cls-1" x="40.284" y="88.631" width="33.333" height="1.083"/>
</svg>
