<svg id="Layer_1" data-name="Layer 1" xmlns="http://www.w3.org/2000/svg" viewBox="0 0 23 27">
  <title>2</title>
  <g>
    <path d="M0,8v7a2.00073,2.00073,0,0,0,2,2v9a0.9991,0.9991,0,0,0,1,1H8a0.9991,0.9991,0,0,0,1-1V17a2.00073,2.00073,0,0,0,2-2V8A2.00073,2.00073,0,0,0,9,6H7.945a3.5,3.5,0,1,0-4.89,0H2A2.00073,2.00073,0,0,0,0,8ZM3,3.5A2.5,2.5,0,1,1,5.5,6,2.5022,2.5022,0,0,1,3,3.5ZM9,7a1.00036,1.00036,0,0,1,1,1v7a1.00036,1.00036,0,0,1-1,1V10H8V26H6V16H5V26H3V10H2v6a1.00036,1.00036,0,0,1-1-1V8A1.00036,1.00036,0,0,1,2,7H9Z"/>
    <path d="M12,8v7a2.00073,2.00073,0,0,0,2,2v9a0.9991,0.9991,0,0,0,1,1h5a0.9991,0.9991,0,0,0,1-1V17a2.00073,2.00073,0,0,0,2-2V8a2.00073,2.00073,0,0,0-2-2H19.945a3.5,3.5,0,1,0-4.89,0H14A2.00073,2.00073,0,0,0,12,8Zm3-4.5A2.5,2.5,0,1,1,17.5,6,2.5022,2.5022,0,0,1,15,3.5ZM21,7a1.00036,1.00036,0,0,1,1,1v7a1.00036,1.00036,0,0,1-1,1V10H20V26H18V16H17V26H15V10H14v6a1.00036,1.00036,0,0,1-1-1V8a1.00036,1.00036,0,0,1,1-1h7Z"/>
  </g>
</svg>
