<svg id="Layer_1" data-name="Layer 1" xmlns="http://www.w3.org/2000/svg" viewBox="0 0 20.251 20.252">
  <title>Blank-kalender</title>
  <path d="M17.438,1.688H15.75V0H14.625V1.688h-9V0H4.5V1.688H2.813A2.81631,2.81631,0,0,0,0,4.501V17.439a2.81631,2.81631,0,0,0,2.813,2.813H17.438a2.8163,2.8163,0,0,0,2.813-2.813V4.5A2.81674,2.81674,0,0,0,17.438,1.688Zm1.687,15.75a1.68919,1.68919,0,0,1-1.687,1.687H2.813a1.6894,1.6894,0,0,1-1.688-1.687V7.313h18V17.438Zm0-11.25h-18V4.5A1.68961,1.68961,0,0,1,2.813,2.812H4.501V3.937H5.625V2.813h9V3.938H15.75V2.813h1.688A1.68854,1.68854,0,0,1,19.125,4.5V6.188Z"/>
</svg>
