<svg id="Layer_1" data-name="Layer 1" xmlns="http://www.w3.org/2000/svg" viewBox="0 0 32 32">
  <defs>
    <style>
      .cls-1 {
        fill: #474747;
      }
    </style>
  </defs>
  <title>Infoknapp</title>
  <g>
    <path class="cls-1" d="M16,0A16,16,0,1,0,32,16,16.04705,16.04705,0,0,0,16,0Zm0,29A13,13,0,1,1,29,16,12.97408,12.97408,0,0,1,16,29Z"/>
    <circle class="cls-1" cx="16" cy="24" r="2"/>
    <path class="cls-1" d="M16,6.5A5.54882,5.54882,0,0,0,10.5,12h3a2.5,2.5,0,0,1,5,0c0,1.1-.5,1.6-1.5,2.5a6.36063,6.36063,0,0,0-2.5,5h3c0-1.3.5-1.8,1.6-2.8A5.9883,5.9883,0,0,0,21.5,12h0A5.54882,5.54882,0,0,0,16,6.5Z"/>
  </g>
</svg>
