<svg id="Layer_1" data-name="Layer 1" xmlns="http://www.w3.org/2000/svg" viewBox="0 0 89.39519 75.04181">
  <defs>
    <style>
      .cls-1, .cls-2, .cls-3 {
        fill: none;
        stroke: #474747;
        stroke-miterlimit: 10;
      }

      .cls-1 {
        stroke-width: 2.07528px;
      }

      .cls-2 {
        stroke-width: 2.08714px;
      }

      .cls-3 {
        stroke-width: 2px;
      }

      .cls-4 {
        fill: #474747;
      }

      .cls-5 {
        fill: #b61921;
      }
    </style>
  </defs>
  <title>Liten</title>
  <path class="cls-1" d="M88.24988,59.73764a4.44083,4.44083,0,0,1-4.57544,4.302l-0.05433-.002H5.66741A4.44083,4.44083,0,0,1,1.03965,59.792l-0.002-.05433v-54.4a4.44084,4.44084,0,0,1,4.57546-4.302l0.05431,0.002H83.72778a4.44083,4.44083,0,0,1,4.62776,4.24568l0.002,0.05432v54.4H88.24988Z" transform="translate(0 0.00419)"/>
  <line class="cls-2" x1="0.03761" y1="59.04181" x2="88.24988" y2="59.04181"/>
  <path class="cls-3" d="M69.63761,73.53762c0,0.5-.4.5-0.9,0.5h-45.5c-0.5,0-.9,0-0.9-0.5s0.4-.5.9-0.5h16.7v-8h10v8h18.7C69.13761,73.03762,69.63761,73.03762,69.63761,73.53762Z" transform="translate(0 0.00419)"/>
  <path class="cls-4" d="M14.32265,38.62771a3.37919,3.37919,0,1,0-3.37919-3.37919h0A3.38317,3.38317,0,0,0,14.32265,38.62771Zm0-5.40663a2.02753,2.02753,0,1,1-2.02745,2.02761V35.24853A2.02965,2.02965,0,0,1,14.32265,33.22108Z" transform="translate(0 0.00419)"/>
  <path class="cls-4" d="M7.56427,27.81427a0.67546,0.67546,0,0,0-.67587.67505V47.41353a0.67546,0.67546,0,0,0,.67505.67587h32.441a0.67556,0.67556,0,0,0,.67587-0.67525v-18.924a0.67546,0.67546,0,0,0-.675-0.67587H7.56427ZM29.86685,35.137l7.54039,11.60086H22.3263ZM20.71394,46.73766H16.93741L21.081,40.52975l1.85776,2.78393Zm18.61461,0h-0.309L30.43371,33.5285a0.70188,0.70188,0,0,0-1.13372,0l-5.55908,8.55225-2.09758-3.14359a0.67591,0.67591,0,0,0-1.12459,0l-5.20619,7.8005H8.24015V29.166h31.0884V46.73766Z" transform="translate(0 0.00419)"/>
  <path class="cls-4" d="M76.49945,33.22107H44.05931a0.67587,0.67587,0,1,0,0,1.35174h32.44" transform="translate(0 0.00419)"/>
  <path class="cls-4" d="M76.49945,29.166H44.05931a0.67587,0.67587,0,0,0,0,1.35174h32.44" transform="translate(0 0.00419)"/>
  <path class="cls-4" d="M57.57606,37.276H44.0593a0.67587,0.67587,0,0,0,0,1.35174H57.57606A0.67587,0.67587,0,0,0,57.57606,37.276Z" transform="translate(0 0.00419)"/>
  <path class="cls-4" d="M56.22449,41.331H44.05931a0.67587,0.67587,0,1,0,0,1.35174H56.22449A0.67587,0.67587,0,0,0,56.22449,41.331Z" transform="translate(0 0.00419)"/>
  <path class="cls-4" d="M56.22449,45.38592H44.05931a0.67587,0.67587,0,1,0,0,1.35174H56.22449A0.67587,0.67587,0,0,0,56.22449,45.38592Z" transform="translate(0 0.00419)"/>
  <path class="cls-4" d="M80.55451,7.18757H3.50921a0.67546,0.67546,0,0,0-.67587.675V52.46844a0.67557,0.67557,0,0,0,.67527.67587h52.7157a0.67587,0.67587,0,0,0,0-1.35174H4.18509V11.24263H79.87847" transform="translate(0 0.00419)"/>
  <path class="cls-4" d="M16.4067,7.18765H84.63035a0.64032,0.64032,0,0,1,.59848.67587v44.605a0.64043,0.64043,0,0,1-.59848.67587H37.9511a0.68089,0.68089,0,0,1,0-1.35174H84.03186V11.24271H17.00534l62.8733-1.35166H4.18509V8.53931H6.23957A0.67,0.67,0,0,0,5.57026,9.21l0,0.00518a0.67918,0.67918,0,1,0,.68247-0.67587H8.94305A0.67,0.67,0,0,0,8.27374,9.21l0,0.00518a0.67918,0.67918,0,1,0,.68247-0.67587h2.69012a0.67,0.67,0,0,0-.66931.67069l0,0.00518a0.67917,0.67917,0,1,0,.68246-0.67587h68.2191" transform="translate(0 0.00419)"/>
  <rect class="cls-5" x="6.8884" y="14.34842" width="33.79189" height="11.02403"/>
  <path class="cls-4" d="M76.25976,18.3993H43.81962a0.67587,0.67587,0,1,0,0,1.35174h32.44" transform="translate(0 0.00419)"/>
  <path class="cls-4" d="M76.25976,14.34423H43.81962a0.67587,0.67587,0,0,0,0,1.35174h32.44" transform="translate(0 0.00419)"/>
  <path class="cls-4" d="M57.33637,22.45423H43.81961a0.67587,0.67587,0,0,0,0,1.35174H57.33637A0.67587,0.67587,0,0,0,57.33637,22.45423Z" transform="translate(0 0.00419)"/>
</svg>
