<?xml version="1.0" encoding="utf-8"?>
<!-- Generator: Adobe Illustrator 19.2.1, SVG Export Plug-In . SVG Version: 6.00 Build 0)  -->
<svg version="1.1" id="Layer_1" xmlns="http://www.w3.org/2000/svg" xmlns:xlink="http://www.w3.org/1999/xlink" x="0px" y="0px"
	 viewBox="0 0 89.4 75" style="enable-background:new 0 0 89.4 75;" xml:space="preserve">
<style type="text/css">
	.st0{fill:none;stroke:#474747;stroke-width:2.0753;stroke-miterlimit:10;}
	.st1{fill:none;stroke:#474747;stroke-width:2.0871;stroke-miterlimit:10;}
	.st2{fill:none;stroke:#474747;stroke-width:2;stroke-miterlimit:10;}
	.st3{fill:#474747;}
	.st4{fill:#B61921;}
</style>
<title>Middels</title>
<path class="st0" d="M88.2,59.7c-0.1,2.5-2.1,4.4-4.6,4.3c0,0,0,0-0.1,0h-78c-2.5,0.1-4.5-1.8-4.6-4.2c0,0,0,0,0-0.1V5.3
	C1.1,2.9,3.2,1,5.6,1c0,0,0,0,0.1,0h78.1c2.5-0.1,4.5,1.8,4.6,4.2c0,0,0,0,0,0.1v54.4C88.4,59.7,88.2,59.7,88.2,59.7z"/>
<line class="st1" x1="0" y1="59" x2="88.2" y2="59"/>
<path class="st2" d="M69.6,73.5c0,0.5-0.4,0.5-0.9,0.5H23.2c-0.5,0-0.9,0-0.9-0.5s0.4-0.5,0.9-0.5h16.7v-8h10v8h18.7
	C69.1,73,69.6,73,69.6,73.5z"/>
<path class="st3" d="M50.3,25.2c1.9,0,3.4-1.5,3.4-3.4s-1.5-3.4-3.4-3.4c-1.9,0-3.4,1.5-3.4,3.4c0,0,0,0,0,0
	C46.9,23.6,48.4,25.2,50.3,25.2z M50.3,19.8c1.1,0,2,0.9,2,2c0,1.1-0.9,2-2,2s-2-0.9-2-2c0,0,0,0,0,0C48.2,20.7,49.1,19.8,50.3,19.8
	L50.3,19.8z"/>
<path class="st3" d="M43.5,14.3c-0.4,0-0.7,0.3-0.7,0.7c0,0,0,0,0,0v18.9c0,0.4,0.3,0.7,0.7,0.7c0,0,0,0,0,0h32.4
	c0.4,0,0.7-0.3,0.7-0.7c0,0,0,0,0,0V15c0-0.4-0.3-0.7-0.7-0.7c0,0,0,0,0,0H43.5z M65.8,21.7l7.5,11.6H58.3L65.8,21.7z M56.7,33.3
	h-3.8l4.1-6.2l1.9,2.8L56.7,33.3z M75.3,33.3H75l-8.6-13.2c-0.2-0.3-0.7-0.4-1-0.2c-0.1,0-0.1,0.1-0.2,0.2l-5.6,8.6l-2.1-3.1
	c-0.2-0.3-0.6-0.4-0.9-0.2c-0.1,0-0.1,0.1-0.2,0.2l-5.2,7.8h-7.1V15.7h31.1C75.3,15.7,75.3,33.3,75.3,33.3z"/>
<path class="st3" d="M76.4,41.6H44c-0.4,0-0.7,0.3-0.7,0.7c0,0.4,0.3,0.7,0.7,0.7h32.4"/>
<path class="st3" d="M76.4,37.5H44c-0.4,0-0.7,0.3-0.7,0.7c0,0.4,0.3,0.7,0.7,0.7h32.4"/>
<path class="st3" d="M57.5,45.6H44c-0.4,0-0.7,0.3-0.7,0.7c0,0.4,0.3,0.7,0.7,0.7h13.5c0.4,0,0.7-0.3,0.7-0.7
	C58.2,45.9,57.9,45.6,57.5,45.6z"/>
<path class="st3" d="M32.6,38.2H8.2c-0.6-0.1-1.1,0.2-1.4,0.7c0.2,0.5,0.8,0.8,1.4,0.7h24.3c0.6,0.1,1.1-0.2,1.4-0.7
	C33.7,38.4,33.1,38.1,32.6,38.2z"/>
<path class="st3" d="M32.6,42.2H8.2c-0.6-0.1-1.1,0.2-1.4,0.7c0.2,0.5,0.8,0.8,1.4,0.7h24.3c0.6,0.1,1.1-0.2,1.4-0.7
	C33.7,42.4,33.1,42.1,32.6,42.2z"/>
<path class="st3" d="M80.6,7.2h-77c-0.4,0-0.7,0.3-0.7,0.7c0,0,0,0,0,0v44.6c0,0.4,0.3,0.7,0.7,0.7c0,0,0,0,0,0h52.7
	c0.4,0,0.7-0.3,0.7-0.7c0-0.4-0.3-0.7-0.7-0.7h-52V11.2h75.7"/>
<path class="st3" d="M16.4,7.2h68.2c0.4,0,0.6,0.3,0.6,0.7v44.6c0,0.4-0.2,0.7-0.6,0.7H38c-0.4,0-0.6-0.4-0.6-0.8
	c0-0.3,0.3-0.6,0.6-0.6H84V11.2H17l62.9-1.4H4.2V8.5h2.1c-0.4,0-0.7,0.3-0.7,0.7c0,0,0,0,0,0c0,0.4,0.3,0.7,0.7,0.7s0.7-0.3,0.7-0.7
	c0-0.4-0.3-0.7-0.7-0.7c0,0,0,0,0,0h2.7c-0.4,0-0.7,0.3-0.7,0.7c0,0,0,0,0,0c0,0.4,0.3,0.7,0.7,0.7s0.7-0.3,0.7-0.7S9.3,8.5,9,8.5
	c0,0,0,0,0,0h2.7c-0.4,0-0.7,0.3-0.7,0.7c0,0,0,0,0,0c0,0.4,0.3,0.7,0.7,0.7s0.7-0.3,0.7-0.7c0-0.4-0.3-0.7-0.7-0.7h68.2"/>
<rect x="6.9" y="14.3" class="st4" width="27.6" height="20.3"/>
<path class="st3" d="M32.6,47.2H8.2c-0.6-0.1-1.1,0.2-1.4,0.7c0.2,0.5,0.8,0.8,1.4,0.7h24.3c0.6,0.1,1.1-0.2,1.4-0.7
	C33.7,47.4,33.1,47.1,32.6,47.2z"/>
</svg>
