<?xml version="1.0" encoding="utf-8"?>
<!-- Generator: Adobe Illustrator 19.2.1, SVG Export Plug-In . SVG Version: 6.00 Build 0)  -->
<svg version="1.1" id="Layer_1" xmlns="http://www.w3.org/2000/svg" xmlns:xlink="http://www.w3.org/1999/xlink" x="0px" y="0px"
	 viewBox="0 0 89.4 75" style="enable-background:new 0 0 89.4 75;" xml:space="preserve">
<style type="text/css">
	.st0{fill:none;stroke:#474747;stroke-width:2.0753;stroke-miterlimit:10;}
	.st1{fill:none;stroke:#474747;stroke-width:2.0871;stroke-miterlimit:10;}
	.st2{fill:none;stroke:#474747;stroke-width:2;stroke-miterlimit:10;}
	.st3{fill:#474747;}
	.st4{fill:#B61921;}
</style>
<title>Stor</title>
<path class="st0" d="M88.2,59.7c-0.1,2.5-2.1,4.4-4.6,4.3c0,0,0,0-0.1,0h-78c-2.5,0.1-4.5-1.8-4.6-4.2c0,0,0,0,0-0.1V5.3
	C1.1,2.9,3.2,1,5.6,1c0,0,0,0,0.1,0h78.1c2.5-0.1,4.5,1.8,4.6,4.2c0,0,0,0,0,0.1v54.4C88.4,59.7,88.2,59.7,88.2,59.7z"/>
<line class="st1" x1="0" y1="59" x2="88.2" y2="59"/>
<path class="st2" d="M69.6,73.5c0,0.5-0.4,0.5-0.9,0.5H23.2c-0.5,0-0.9,0-0.9-0.5s0.4-0.5,0.9-0.5h16.7v-8h10v8h18.7
	C69.1,73,69.6,73,69.6,73.5z"/>
<path class="st3" d="M14.3,39.6c1.9,0,3.4-1.5,3.4-3.4c0-1.9-1.5-3.4-3.4-3.4c-1.9,0-3.4,1.5-3.4,3.4c0,0,0,0,0,0
	C10.9,38.1,12.5,39.6,14.3,39.6z M14.3,34.2c1.1,0,2,0.9,2,2s-0.9,2-2,2c-1.1,0-2-0.9-2-2c0,0,0,0,0,0
	C12.3,35.1,13.2,34.2,14.3,34.2z"/>
<path class="st3" d="M7.6,28.8c-0.4,0-0.7,0.3-0.7,0.7c0,0,0,0,0,0v18.9c0,0.4,0.3,0.7,0.7,0.7c0,0,0,0,0,0H40
	c0.4,0,0.7-0.3,0.7-0.7c0,0,0,0,0,0V29.5c0-0.4-0.3-0.7-0.7-0.7c0,0,0,0,0,0H7.6z M29.9,36.1l7.5,11.6H22.3L29.9,36.1z M20.7,47.7
	h-3.8l4.1-6.2l1.9,2.8L20.7,47.7z M39.3,47.7H39l-8.6-13.2c-0.2-0.3-0.7-0.4-1-0.2c-0.1,0-0.1,0.1-0.2,0.2l-5.6,8.6l-2.1-3.1
	c-0.2-0.3-0.6-0.4-0.9-0.2c-0.1,0-0.1,0.1-0.2,0.2l-5.2,7.8H8.2V30.2h31.1V47.7z"/>
<path class="st3" d="M76.5,34.2H44.1c-0.4,0-0.7,0.3-0.7,0.7c0,0.4,0.3,0.7,0.7,0.7h32.4"/>
<path class="st3" d="M76.5,30.2H44.1c-0.4,0-0.7,0.3-0.7,0.7c0,0.4,0.3,0.7,0.7,0.7h32.4"/>
<path class="st3" d="M57.6,38.3H44.1c-0.4,0-0.7,0.3-0.7,0.7c0,0.4,0.3,0.7,0.7,0.7h13.5c0.4,0,0.7-0.3,0.7-0.7
	C58.3,38.6,57.9,38.3,57.6,38.3z"/>
<path class="st3" d="M56.2,42.3H44.1c-0.4,0-0.7,0.3-0.7,0.7c0,0.4,0.3,0.7,0.7,0.7h12.2c0.4,0,0.7-0.3,0.7-0.7
	C56.9,42.6,56.6,42.3,56.2,42.3z"/>
<path class="st3" d="M56.2,46.4H44.1c-0.4,0-0.7,0.3-0.7,0.7c0,0.4,0.3,0.7,0.7,0.7h12.2c0.4,0,0.7-0.3,0.7-0.7
	C56.9,46.7,56.6,46.4,56.2,46.4z"/>
<path class="st3" d="M80.6,7.2h-77c-0.4,0-0.7,0.3-0.7,0.7c0,0,0,0,0,0v44.6c0,0.4,0.3,0.7,0.7,0.7c0,0,0,0,0,0h52.7
	c0.4,0,0.7-0.3,0.7-0.7c0-0.4-0.3-0.7-0.7-0.7h-52V11.2h75.7"/>
<path class="st3" d="M16.4,7.2h68.2c0.4,0,0.6,0.3,0.6,0.7v44.6c0,0.4-0.2,0.7-0.6,0.7H38c-0.4,0-0.6-0.4-0.6-0.8
	c0-0.3,0.3-0.6,0.6-0.6H84V11.2H17l62.9-1.4H4.2V8.5h2.1c-0.4,0-0.7,0.3-0.7,0.7c0,0,0,0,0,0c0,0.4,0.3,0.7,0.7,0.7s0.7-0.3,0.7-0.7
	c0-0.4-0.3-0.7-0.7-0.7c0,0,0,0,0,0h2.7c-0.4,0-0.7,0.3-0.7,0.7c0,0,0,0,0,0c0,0.4,0.3,0.7,0.7,0.7s0.7-0.3,0.7-0.7S9.3,8.5,9,8.5
	c0,0,0,0,0,0h2.7c-0.4,0-0.7,0.3-0.7,0.7c0,0,0,0,0,0c0,0.4,0.3,0.7,0.7,0.7s0.7-0.3,0.7-0.7c0-0.4-0.3-0.7-0.7-0.7h68.2"/>
<rect x="6.9" y="13.8" class="st4" width="69.2" height="12.6"/>
</svg>
