<svg id="Layer_1" data-name="Layer 1" xmlns="http://www.w3.org/2000/svg" viewBox="0 0 89.39519 75.03762">
  <defs>
    <style>
      .cls-1 {
        fill: #b61921;
      }

      .cls-2, .cls-4 {
        fill: none;
      }

      .cls-2, .cls-3, .cls-4 {
        stroke: #474747;
        stroke-miterlimit: 10;
      }

      .cls-2 {
        stroke-width: 2.07528px;
      }

      .cls-3, .cls-5 {
        fill: #474747;
      }

      .cls-3 {
        stroke-width: 2.08714px;
      }

      .cls-4 {
        stroke-width: 2px;
      }
    </style>
  </defs>
  <title>Størst</title>
  <rect class="cls-1" x="3.53666" y="9.89105" width="80.88914" height="41.90159"/>
  <path class="cls-2" d="M88.24988,59.73764a4.44083,4.44083,0,0,1-4.62977,4.3H5.66741a4.44083,4.44083,0,0,1-4.62977-4.3v-54.4a4.44084,4.44084,0,0,1,4.62977-4.3H83.72778a4.44083,4.44083,0,0,1,4.62977,4.3v54.4H88.24988Z"/>
  <line class="cls-3" x1="0.03761" y1="59.03762" x2="88.24988" y2="59.03762"/>
  <path class="cls-4" d="M69.63761,73.53762c0,0.5-.4.5-0.9,0.5h-45.5c-0.5,0-.9,0-0.9-0.5s0.4-.5.9-0.5h16.7v-8h10v8h18.7C69.13761,73.03762,69.63761,73.03762,69.63761,73.53762Z"/>
  <path class="cls-5" d="M80.55451,7.18757H3.50921a0.67546,0.67546,0,0,0-.67587.67587v44.605a0.67557,0.67557,0,0,0,.67587.67587h52.7151a0.67587,0.67587,0,0,0,0-1.35174H4.18509V11.24263H79.87847"/>
  <path class="cls-5" d="M16.4067,7.18765H84.63035a0.64032,0.64032,0,0,1,.59848.67587v44.605a0.64043,0.64043,0,0,1-.59848.67587H37.9511a0.68089,0.68089,0,0,1,0-1.35174H84.03186V11.24271H17.00534l62.8733-1.35166H4.18509V8.53931H6.23957a0.67,0.67,0,0,0-.66928.67587,0.67918,0.67918,0,1,0,.68246-0.67587h2.6903a0.67,0.67,0,0,0-.66928.67587,0.67918,0.67918,0,1,0,.68246-0.67587h2.69013a0.67,0.67,0,0,0-.66928.67587,0.67917,0.67917,0,1,0,.68246-0.67587H79.87864"/>
</svg>
